<?xml version="1.0" encoding="utf-8"?>
<!-- Generator: Adobe Illustrator 16.0.0, SVG Export Plug-In . SVG Version: 6.00 Build 0)  -->
<!DOCTYPE svg PUBLIC "-//W3C//DTD SVG 1.1//EN" "http://www.w3.org/Graphics/SVG/1.1/DTD/svg11.dtd">
<svg version="1.1" id="图层_1" xmlns="http://www.w3.org/2000/svg" xmlns:xlink="http://www.w3.org/1999/xlink" x="0px" y="0px"
	 width="50px" height="12px" viewBox="135.25 30.75 50 12" enable-background="new 135.25 30.75 50 12" xml:space="preserve">
<path fill="none" d="M171.188,34.708c-0.248,0-0.501,0.121-0.756,0.362c-0.257,0.242-0.462,0.521-0.615,0.839
	c-0.153,0.318-0.295,0.768-0.422,1.348l-0.044,0.209c-0.06,0.275-0.092,0.549-0.092,0.813c0,0.273,0.046,0.471,0.138,0.592
	c0.094,0.119,0.247,0.18,0.464,0.18c0.137,0,0.267-0.021,0.386-0.068c0.115-0.045,0.233-0.119,0.347-0.223
	c0.115-0.102,0.23-0.252,0.347-0.451c0.145-0.248,0.272-0.527,0.384-0.842c0.111-0.315,0.197-0.646,0.263-0.991
	c0.062-0.347,0.094-0.664,0.094-0.953c0-0.277-0.04-0.482-0.119-0.615C171.48,34.775,171.355,34.708,171.188,34.708z"/>
<path fill="none" d="M162.198,34.467c-0.349,0-0.661,0.172-0.942,0.517c-0.278,0.344-0.507,0.847-0.687,1.505
	c0.689-0.019,1.217-0.151,1.581-0.396c0.364-0.245,0.547-0.593,0.547-1.042c0-0.191-0.044-0.336-0.131-0.436
	C162.477,34.517,162.355,34.467,162.198,34.467z"/>
<path fill="none" d="M155.471,34.467c-0.348,0-0.657,0.175-0.927,0.525c-0.27,0.35-0.486,0.82-0.651,1.413
	c-0.165,0.591-0.247,1.123-0.247,1.589c0,0.273,0.04,0.477,0.121,0.613c0.081,0.133,0.205,0.201,0.374,0.201
	c0.248,0,0.499-0.121,0.755-0.363c0.256-0.24,0.463-0.523,0.621-0.852c0.157-0.324,0.297-0.77,0.42-1.335l0.045-0.207
	c0.023-0.112,0.043-0.243,0.062-0.391c0.019-0.148,0.029-0.292,0.029-0.435c0-0.25-0.047-0.44-0.141-0.567
	S155.684,34.467,155.471,34.467z"/>
<path fill="none" d="M148.744,34.467c-0.348,0-0.657,0.175-0.927,0.525c-0.27,0.35-0.486,0.82-0.652,1.413
	c-0.165,0.591-0.247,1.123-0.247,1.589c0,0.273,0.04,0.477,0.12,0.613c0.082,0.133,0.206,0.201,0.375,0.201
	c0.247,0,0.499-0.121,0.755-0.363c0.257-0.24,0.463-0.523,0.621-0.852c0.158-0.324,0.298-0.77,0.421-1.335l0.045-0.207
	c0.026-0.12,0.048-0.254,0.065-0.402c0.016-0.148,0.025-0.292,0.025-0.429c0-0.248-0.047-0.435-0.14-0.562
	C149.111,34.531,148.958,34.467,148.744,34.467z"/>
<path fill="#626466" d="M140.007,36.568l-0.438-4.689h-2.617l-0.078,0.371c0.164,0.022,0.284,0.07,0.356,0.143
	c0.073,0.073,0.109,0.188,0.109,0.345c0,0.217-0.024,0.436-0.072,0.657l-1.023,4.633c-0.06,0.275-0.119,0.484-0.18,0.627
	c-0.06,0.143-0.131,0.254-0.216,0.334c-0.084,0.078-0.205,0.141-0.362,0.184l-0.079,0.373h2.061l0.079-0.373
	c-0.165-0.021-0.283-0.068-0.356-0.141c-0.073-0.074-0.109-0.189-0.109-0.346c0-0.098,0.003-0.18,0.008-0.244
	c0.005-0.066,0.012-0.127,0.02-0.184c0.008-0.055,0.023-0.133,0.045-0.23l0.545-2.465c0.067-0.303,0.142-0.677,0.224-1.121
	c0.083-0.443,0.149-0.837,0.202-1.182h0.091c0.015,0.311,0.034,0.625,0.059,0.944c0.024,0.317,0.061,0.69,0.109,1.117l0.371,3.375
	h0.911l2.526-4.374c0.203-0.348,0.392-0.684,0.567-1.005h0.112c-0.139,0.463-0.26,0.909-0.365,1.334
	c-0.105,0.424-0.186,0.765-0.242,1.019l-0.517,2.358c-0.06,0.275-0.12,0.484-0.179,0.627c-0.06,0.143-0.132,0.256-0.216,0.334
	c-0.084,0.08-0.205,0.141-0.362,0.184l-0.079,0.373h2.825l0.078-0.373c-0.165-0.021-0.284-0.068-0.356-0.141
	c-0.073-0.074-0.109-0.188-0.109-0.346c0-0.098,0.003-0.18,0.008-0.244c0.006-0.066,0.013-0.127,0.02-0.184
	c0.008-0.055,0.023-0.133,0.045-0.23l1.022-4.633c0.06-0.273,0.12-0.482,0.18-0.625c0.06-0.144,0.131-0.256,0.216-0.334
	c0.084-0.079,0.205-0.14,0.362-0.185l0.079-0.371h-2.611L140.007,36.568z"/>
<path fill="#626466" d="M150.373,37.889l0.865-3.916l-0.629-0.091l-0.505,0.405c-0.393-0.269-0.868-0.405-1.426-0.405
	c-0.408,0-0.785,0.065-1.132,0.194c-0.346,0.129-0.656,0.317-0.929,0.565c-0.273,0.246-0.5,0.544-0.68,0.89
	c-0.18,0.347-0.315,0.719-0.408,1.12c-0.091,0.401-0.137,0.798-0.137,1.19c0,0.412,0.057,0.752,0.174,1.02
	c0.116,0.27,0.273,0.463,0.471,0.588c0.198,0.121,0.429,0.184,0.69,0.184c0.277,0,0.522-0.035,0.734-0.111
	c0.211-0.074,0.426-0.203,0.646-0.385c0.219-0.182,0.455-0.436,0.71-0.766l0.073,0.021l-0.304,1.152h2.157l0.062-0.373
	c-0.21-0.016-0.356-0.064-0.438-0.139c-0.083-0.074-0.124-0.195-0.124-0.365c0-0.082,0.01-0.184,0.031-0.303
	C150.295,38.246,150.329,38.086,150.373,37.889z M149.32,35.649c-0.017,0.148-0.039,0.282-0.065,0.402l-0.045,0.207
	c-0.123,0.565-0.264,1.011-0.421,1.335c-0.157,0.328-0.364,0.611-0.621,0.852c-0.256,0.242-0.508,0.363-0.755,0.363
	c-0.168,0-0.293-0.068-0.375-0.201c-0.08-0.137-0.12-0.34-0.12-0.613c0-0.467,0.082-0.999,0.247-1.589
	c0.166-0.592,0.382-1.063,0.652-1.413c0.27-0.35,0.579-0.525,0.927-0.525c0.214,0,0.367,0.063,0.461,0.191
	c0.093,0.127,0.14,0.314,0.14,0.562C149.345,35.358,149.336,35.501,149.32,35.649z"/>
<path fill="#626466" d="M157.1,37.889l1.415-6.387h-0.634l-1.68,0.09l-0.09,0.365c0.165,0.023,0.276,0.042,0.332,0.059
	c0.055,0.017,0.101,0.041,0.134,0.07s0.059,0.069,0.076,0.115c0.017,0.047,0.025,0.111,0.025,0.193c0,0.09-0.015,0.223-0.045,0.399
	c-0.03,0.176-0.056,0.311-0.078,0.405l-0.191,0.858c-0.311-0.115-0.633-0.174-0.966-0.174c-0.408,0-0.785,0.065-1.131,0.194
	c-0.347,0.129-0.656,0.317-0.93,0.565c-0.273,0.246-0.499,0.544-0.676,0.89c-0.178,0.347-0.313,0.719-0.405,1.12
	c-0.091,0.401-0.138,0.798-0.138,1.19c0,0.412,0.058,0.752,0.174,1.02c0.117,0.27,0.273,0.463,0.473,0.588
	c0.198,0.121,0.428,0.184,0.689,0.184c0.278,0,0.522-0.035,0.734-0.111c0.211-0.074,0.427-0.203,0.646-0.385
	c0.219-0.182,0.456-0.436,0.71-0.766l0.073,0.021l-0.304,1.152h2.158l0.061-0.373c-0.209-0.016-0.356-0.064-0.438-0.139
	c-0.083-0.074-0.124-0.195-0.124-0.365c0-0.086,0.011-0.191,0.034-0.316C157.027,38.227,157.059,38.07,157.1,37.889z
	 M156.044,35.661c-0.019,0.148-0.039,0.278-0.062,0.39l-0.045,0.208c-0.123,0.565-0.264,1.011-0.421,1.335
	c-0.157,0.328-0.364,0.611-0.621,0.852c-0.256,0.242-0.508,0.363-0.755,0.363c-0.169,0-0.293-0.068-0.375-0.201
	c-0.08-0.137-0.12-0.34-0.12-0.613c0-0.467,0.082-0.999,0.246-1.589c0.166-0.592,0.382-1.063,0.652-1.413
	c0.269-0.35,0.579-0.525,0.927-0.525c0.213,0,0.367,0.063,0.461,0.19c0.093,0.127,0.14,0.316,0.14,0.567
	C156.071,35.368,156.063,35.513,156.044,35.661z"/>
<path fill="#626466" d="M163.619,34.189c-0.293-0.204-0.719-0.306-1.282-0.306c-0.476,0-0.911,0.077-1.312,0.229
	c-0.398,0.154-0.745,0.373-1.041,0.658c-0.296,0.284-0.536,0.625-0.719,1.021c-0.146,0.322-0.255,0.689-0.326,1.101
	c-0.053,0.303-0.079,0.552-0.079,0.748c0,0.42,0.078,0.779,0.233,1.08c0.155,0.303,0.386,0.529,0.694,0.684
	c0.308,0.152,0.679,0.229,1.118,0.229c0.51,0,0.981-0.102,1.417-0.309c0.438-0.205,0.844-0.521,1.223-0.947l-0.472-0.473
	c-0.36,0.342-0.671,0.578-0.938,0.711c-0.267,0.133-0.563,0.199-0.894,0.199c-0.175,0-0.32-0.029-0.432-0.088
	c-0.111-0.057-0.203-0.135-0.269-0.234c-0.067-0.096-0.115-0.207-0.141-0.332c-0.026-0.127-0.04-0.258-0.04-0.396
	c0-0.236,0.026-0.465,0.074-0.685c0.685-0.015,1.27-0.077,1.753-0.186c0.486-0.108,0.862-0.25,1.127-0.427
	c0.267-0.176,0.456-0.372,0.571-0.589c0.113-0.218,0.172-0.469,0.172-0.753C164.058,34.705,163.91,34.393,163.619,34.189z
	 M162.15,36.093c-0.364,0.245-0.892,0.376-1.581,0.396c0.18-0.659,0.408-1.161,0.689-1.505c0.278-0.345,0.591-0.517,0.939-0.517
	c0.157,0,0.278,0.05,0.368,0.149c0.087,0.099,0.131,0.244,0.131,0.435C162.697,35.5,162.515,35.848,162.15,36.093z"/>
<path fill="#626466" d="M173.089,36.761c0.08-0.396,0.119-0.757,0.119-1.087c0-0.412-0.06-0.752-0.177-1.021
	s-0.276-0.466-0.478-0.587s-0.431-0.183-0.688-0.183c-0.256,0-0.485,0.035-0.688,0.102c-0.205,0.067-0.406,0.178-0.603,0.334
	c-0.199,0.155-0.419,0.37-0.653,0.643l-0.071-0.023l0.859-3.437h-0.659l-1.649,0.09l-0.092,0.365
	c0.165,0.023,0.274,0.042,0.328,0.059c0.056,0.017,0.1,0.041,0.134,0.07c0.033,0.03,0.06,0.069,0.075,0.115
	c0.018,0.047,0.026,0.111,0.026,0.193c0,0.184-0.04,0.452-0.12,0.804l-1.419,6.347l0.611,0.088l0.523-0.402
	c0.238,0.15,0.472,0.254,0.696,0.314c0.226,0.061,0.46,0.088,0.707,0.088c0.324,0,0.631-0.035,0.916-0.113
	c0.284-0.076,0.549-0.191,0.794-0.34c0.245-0.15,0.466-0.34,0.665-0.566c0.199-0.23,0.37-0.496,0.514-0.803
	C172.901,37.506,173.012,37.156,173.089,36.761z M171.586,36.476c-0.065,0.345-0.151,0.676-0.263,0.989
	c-0.111,0.316-0.239,0.596-0.384,0.844c-0.116,0.199-0.231,0.35-0.345,0.451c-0.115,0.104-0.231,0.178-0.349,0.223
	c-0.119,0.047-0.247,0.068-0.384,0.068c-0.219,0-0.372-0.061-0.464-0.18c-0.094-0.121-0.138-0.318-0.138-0.592
	c0-0.264,0.03-0.537,0.09-0.814l0.044-0.207c0.127-0.58,0.269-1.029,0.422-1.348s0.358-0.598,0.615-0.839s0.508-0.363,0.756-0.363
	c0.168,0,0.293,0.067,0.373,0.2c0.079,0.133,0.119,0.338,0.119,0.615C171.68,35.812,171.647,36.129,171.586,36.476z"/>
<path fill="#626466" d="M177.779,33.973l-0.08,0.37c0.167,0.008,0.287,0.048,0.354,0.121c0.065,0.073,0.102,0.181,0.102,0.323
	c0,0.359-0.136,0.811-0.402,1.354s-0.685,1.218-1.25,2.029l-0.388-4.197h-1.978l-0.083,0.37c0.153,0.015,0.267,0.054,0.34,0.118
	c0.072,0.063,0.132,0.164,0.174,0.301c0.044,0.137,0.083,0.341,0.115,0.615l0.506,4.168h0.32c-0.233,0.291-0.438,0.539-0.617,0.738
	c-0.182,0.199-0.337,0.355-0.466,0.463c-0.132,0.107-0.261,0.188-0.387,0.24c-0.125,0.053-0.265,0.08-0.424,0.08
	c-0.115,0-0.203-0.037-0.265-0.113c-0.06-0.074-0.092-0.191-0.094-0.348h-0.595l-0.277,1.264c0.118,0.037,0.249,0.068,0.396,0.092
	c0.147,0.025,0.279,0.037,0.391,0.037c0.24,0,0.451-0.023,0.635-0.072s0.356-0.123,0.521-0.225c0.207-0.119,0.424-0.293,0.651-0.518
	c0.304-0.295,0.681-0.734,1.128-1.318c0.538-0.697,1.046-1.396,1.527-2.102c0.479-0.704,0.882-1.344,1.204-1.921
	c0.32-0.575,0.562-1.076,0.719-1.499l-0.195-0.37H177.779z"/>
<polygon fill="#626466" points="182.493,39.545 183.924,39.545 184.307,37.848 182.869,37.848 "/>
<polygon fill="#626466" points="183.279,36.006 184.711,36.006 185.093,34.31 183.653,34.31 "/>
</svg>
