<?xml version="1.0" encoding="utf-8"?>
<!-- Generator: Adobe Illustrator 16.0.0, SVG Export Plug-In . SVG Version: 6.00 Build 0)  -->
<!DOCTYPE svg PUBLIC "-//W3C//DTD SVG 1.1//EN" "http://www.w3.org/Graphics/SVG/1.1/DTD/svg11.dtd">
<svg version="1.1" id="图层_1" xmlns="http://www.w3.org/2000/svg" xmlns:xlink="http://www.w3.org/1999/xlink" x="0px" y="0px"
	 width="55px" height="12.25px" viewBox="142.25 33 55 12.25" enable-background="new 142.25 33 55 12.25" xml:space="preserve">
<rect x="175.142" y="36.608" fill="none" width="1.678" height="1.058"/>
<path fill="none" d="M145.435,38.891h6.407V36.58h-5.627C145.98,37.35,145.72,38.121,145.435,38.891z"/>
<rect x="175.142" y="38.5" fill="none" width="1.678" height="1.213"/>
<path fill="#626466" d="M154.154,38.891h-0.921V36.58v-1.049h-1.392h-5.327c0.115-0.422,0.224-0.845,0.322-1.266h7.025v-0.974
	h-11.319v0.974h3.024c-0.089,0.428-0.184,0.85-0.285,1.266h-2.41v1.05h2.14c-0.221,0.81-0.462,1.584-0.721,2.31h-2.041v1.048h11.904
	V38.891z M151.841,38.891h-6.407c0.286-0.77,0.546-1.541,0.78-2.311h5.627V38.891L151.841,38.891z"/>
<polygon fill="#626466" points="153.313,45.074 153.313,40.817 152.251,40.817 151.855,40.817 144.488,40.817 143.627,40.817 
	143.193,40.817 143.193,44.766 144.488,44.766 144.488,44.766 151.563,44.766 151.563,43.991 144.488,43.991 144.488,41.691 
	151.855,41.691 151.855,44.813 "/>
<polygon fill="#626466" points="159.727,33.487 157.094,33.314 157.094,34.271 159.727,34.443 "/>
<polygon fill="#626466" points="157.034,45.091 157.53,45.091 158.465,45.091 159.361,45.091 159.566,44.167 158.585,44.167 
	159.727,35.401 158.301,35.798 158.3,35.801 156.84,35.893 156.84,36.802 158.174,36.719 "/>
<polygon fill="#626466" points="161.191,36.028 162.452,36.028 162.452,35.43 166.997,35.43 166.997,36.028 168.257,36.028 
	168.257,35.43 168.819,35.43 168.819,34.623 168.257,34.623 168.257,33.537 166.997,33.537 166.997,34.623 162.452,34.623 
	162.452,33.537 161.191,33.537 161.191,34.623 160.505,34.623 160.505,35.43 161.191,35.43 "/>
<path fill="#626466" d="M161.011,38.214c-0.247,1.35-0.59,2.607-1.015,3.688h0.189h0.726h0.045v2.749h0.223v0.002h5.495v-0.774
	h-4.423v-2.552h4.71v3.453l1.459,0.26v-3.713v-0.674v-0.2h-6.81c0.24-0.746,0.442-1.492,0.605-2.239h6.604v-0.967h-6.415
	c0.022-0.129,0.045-0.258,0.066-0.387h-0.189h-0.869h-0.189c-0.018,0.131-0.037,0.258-0.057,0.387h-1.328l-0.132,0.967H161.011z"/>
<polygon fill="#626466" points="173.636,35.163 171.685,34.999 171.685,35.866 173.636,36.03 "/>
<polygon fill="#626466" points="173.636,33.541 171.685,33.377 171.685,34.244 173.636,34.408 "/>
<path fill="#626466" d="M175.393,45.064h1.275v-3.108h1.486v-0.879h-1.486v-0.456h0.151h1.161h0.125v-5.028h-0.125v-0.011h-1.313
	V34.8h1.431v-0.879h-1.431v-0.542h-1.275v0.542h-1.302V34.8h1.302v0.782h-0.844v0.011h-0.509v5.028h0.509h0.593h0.251v0.456h-1.44
	v0.879h1.44V45.064z M175.142,36.608h1.678v1.058h-1.678V36.608z M175.142,39.713V38.5h1.678v1.213H175.142z"/>
<polygon fill="#626466" points="179.727,35.345 183.557,35.345 183.557,34.586 179.91,34.586 180.2,33.382 178.931,33.382 
	178.457,35.346 179.727,35.346 "/>
<polygon fill="#626466" points="180.607,45.095 180.607,36.252 180.606,36.252 179.483,36.252 178.505,36.252 178.505,37.278 
	179.483,37.278 179.483,37.966 178.478,37.882 178.478,38.749 179.483,38.833 179.483,39.59 178.478,39.504 178.478,40.371 
	179.483,40.455 179.483,44.9 "/>
<polygon fill="#626466" points="183.55,45.095 183.55,36.252 183.548,36.252 182.424,36.252 181.446,36.252 181.446,37.278 
	182.424,37.278 182.424,37.96 181.484,37.882 181.484,38.749 182.424,38.827 182.424,39.584 181.484,39.504 181.484,40.371 
	182.424,40.45 182.424,44.9 "/>
<polygon fill="#626466" points="190.59,44.849 191.865,45.108 191.865,41.871 197.25,41.871 197.25,40.981 191.865,40.981 
	191.865,39.984 194.527,39.984 194.527,39.21 187.384,39.21 187.384,38.031 194.527,38.031 194.527,37.259 187.384,37.259 
	187.384,36.705 194.896,36.705 194.896,40.016 196.356,40.276 196.356,35.831 195.148,35.831 194.896,35.831 188.636,35.831 
	188.636,34.7 196.368,34.7 196.368,33.834 188.636,33.834 188.636,33.296 187.36,33.296 187.36,35.831 186.522,35.831 
	186.09,35.831 186.09,39.984 187.384,39.984 187.384,39.984 190.59,39.984 190.59,40.981 185.204,40.981 185.204,41.871 
	190.59,41.871 "/>
<path fill="#626466" d="M172.063,45.026h0.189c0.648-2.598,1.108-5.195,1.372-7.792h-0.189h-0.87h-0.188
	c-0.242,2.873-0.664,5.572-1.228,7.792h0.188H172.063z"/>
</svg>
