<?xml version="1.0" encoding="utf-8"?>
<!-- Generator: Adobe Illustrator 16.0.0, SVG Export Plug-In . SVG Version: 6.00 Build 0)  -->
<!DOCTYPE svg PUBLIC "-//W3C//DTD SVG 1.1//EN" "http://www.w3.org/Graphics/SVG/1.1/DTD/svg11.dtd">
<svg version="1.1" id="图层_1" xmlns="http://www.w3.org/2000/svg" xmlns:xlink="http://www.w3.org/1999/xlink" x="0px" y="0px"
	 width="55px" height="8px" viewBox="146.75 18.062 55 8" enable-background="new 146.75 18.062 55 8" xml:space="preserve">
<path fill="#646464" d="M152.114,24.73c0.137-0.187,0.239-0.417,0.306-0.692c0.065-0.273,0.097-0.615,0.097-1.023v-3.081
	c0-0.158,0.005-0.289,0.015-0.392c0.01-0.103,0.034-0.188,0.071-0.256c0.036-0.068,0.087-0.12,0.157-0.157
	c0.069-0.039,0.163-0.073,0.28-0.106v-0.326h-2.168v0.326c0.181,0.049,0.302,0.103,0.365,0.162c0.062,0.06,0.104,0.138,0.125,0.235
	c0.021,0.096,0.032,0.268,0.032,0.515v3.145c0,0.48-0.034,0.841-0.101,1.082c-0.067,0.242-0.184,0.43-0.349,0.564
	c-0.164,0.134-0.414,0.202-0.749,0.202c-0.243,0-0.442-0.041-0.597-0.123c-0.154-0.083-0.275-0.2-0.362-0.352
	c-0.086-0.153-0.147-0.337-0.179-0.55c-0.033-0.213-0.05-0.451-0.05-0.71v-3.254c0-0.184,0.005-0.324,0.019-0.418
	c0.013-0.096,0.037-0.172,0.07-0.232c0.032-0.058,0.081-0.108,0.146-0.149c0.063-0.041,0.163-0.08,0.297-0.116v-0.326h-2.587v0.326
	c0.125,0.033,0.223,0.07,0.294,0.11c0.069,0.042,0.122,0.095,0.157,0.16c0.034,0.066,0.055,0.151,0.063,0.256
	c0.008,0.105,0.012,0.236,0.012,0.39v3.19c0,0.439,0.049,0.799,0.145,1.078c0.098,0.28,0.248,0.517,0.449,0.713
	c0.203,0.195,0.464,0.341,0.787,0.438c0.322,0.097,0.717,0.145,1.183,0.145c0.318,0,0.606-0.024,0.862-0.073
	c0.256-0.05,0.487-0.132,0.692-0.247C151.804,25.07,151.976,24.918,152.114,24.73z"/>
<path fill="#646464" d="M159.472,19.935c0-0.207,0.01-0.361,0.03-0.461c0.021-0.1,0.048-0.175,0.087-0.224
	c0.037-0.049,0.083-0.089,0.138-0.119c0.054-0.028,0.147-0.065,0.278-0.107v-0.326h-1.863v0.326
	c0.135,0.039,0.231,0.076,0.288,0.107c0.058,0.034,0.104,0.074,0.139,0.124c0.034,0.049,0.06,0.122,0.077,0.217
	s0.024,0.25,0.024,0.463v0.917c0,0.931,0.019,1.788,0.055,2.573h-0.079c-0.135-0.289-0.29-0.596-0.464-0.921
	c-0.174-0.326-0.315-0.583-0.424-0.774l-1.745-3.032h-1.996v0.326c0.173,0.046,0.294,0.1,0.361,0.162
	c0.067,0.063,0.112,0.141,0.134,0.235c0.022,0.094,0.031,0.263,0.031,0.51v4.264c0,0.154-0.004,0.282-0.015,0.384
	c-0.01,0.103-0.031,0.187-0.066,0.254c-0.034,0.068-0.087,0.121-0.158,0.161c-0.07,0.039-0.167,0.075-0.288,0.108v0.325h1.863
	v-0.325c-0.177-0.047-0.298-0.098-0.363-0.155c-0.064-0.057-0.108-0.136-0.133-0.235c-0.024-0.098-0.037-0.271-0.037-0.518v-1.586
	c0-0.786-0.017-1.532-0.05-2.238h0.045c0.141,0.295,0.361,0.703,0.66,1.222l2.219,3.834h1.251V19.935L159.472,19.935z"/>
<path fill="#646464" d="M164.109,18.618c-0.631,0-1.174,0.137-1.631,0.41c-0.458,0.272-0.804,0.669-1.039,1.195
	c-0.235,0.523-0.352,1.156-0.352,1.895c0,1.127,0.242,1.973,0.727,2.539c0.486,0.565,1.211,0.848,2.177,0.848
	c0.463,0,0.883-0.068,1.259-0.203c0.376-0.134,0.7-0.345,0.968-0.632c0.271-0.285,0.478-0.651,0.625-1.096
	c0.146-0.445,0.219-0.979,0.219-1.6c0-1.11-0.248-1.948-0.739-2.512C165.83,18.9,165.091,18.618,164.109,18.618z M165.418,23.281
	c-0.048,0.336-0.127,0.626-0.237,0.87c-0.11,0.245-0.253,0.436-0.431,0.572c-0.177,0.137-0.393,0.205-0.646,0.205
	c-0.489,0-0.854-0.243-1.092-0.727c-0.238-0.485-0.358-1.224-0.358-2.217c0-0.949,0.116-1.651,0.348-2.106
	c0.231-0.456,0.585-0.683,1.062-0.683c0.326,0,0.592,0.113,0.801,0.338c0.209,0.226,0.365,0.558,0.469,1
	c0.104,0.442,0.155,0.991,0.155,1.645C165.49,22.579,165.466,22.946,165.418,23.281z"/>
<path fill="#646464" d="M174.033,19.55c0.009-0.085,0.026-0.163,0.056-0.231c0.026-0.069,0.073-0.125,0.14-0.17
	c0.065-0.045,0.17-0.086,0.315-0.125v-0.326h-2.574v0.326c0.177,0.049,0.298,0.104,0.363,0.165c0.064,0.061,0.107,0.14,0.128,0.237
	c0.021,0.097,0.032,0.27,0.032,0.52v1.646h-2.229v-1.646c0-0.253,0.014-0.429,0.04-0.525c0.026-0.097,0.071-0.175,0.136-0.235
	c0.064-0.059,0.184-0.113,0.357-0.162v-0.326h-2.588v0.326c0.125,0.033,0.223,0.07,0.293,0.11c0.071,0.042,0.124,0.095,0.157,0.16
	c0.034,0.066,0.056,0.151,0.064,0.256s0.012,0.236,0.012,0.39v4.25c0,0.157-0.004,0.288-0.015,0.391
	c-0.01,0.104-0.032,0.189-0.067,0.258c-0.034,0.067-0.086,0.119-0.158,0.157c-0.071,0.038-0.167,0.072-0.288,0.105v0.325h2.587
	v-0.325c-0.096-0.023-0.176-0.05-0.241-0.081c-0.066-0.031-0.117-0.068-0.155-0.111c-0.038-0.042-0.067-0.095-0.086-0.157
	s-0.033-0.144-0.04-0.242c-0.006-0.098-0.01-0.205-0.01-0.32v-1.977h2.229v1.977c0,0.279-0.012,0.463-0.035,0.554
	c-0.024,0.09-0.063,0.161-0.118,0.209c-0.057,0.05-0.18,0.099-0.37,0.148v0.327h2.573v-0.327c-0.174-0.042-0.294-0.095-0.36-0.157
	s-0.11-0.14-0.131-0.233c-0.021-0.093-0.032-0.267-0.032-0.52v-4.245C174.021,19.768,174.026,19.635,174.033,19.55z"/>
<path fill="#646464" d="M178.931,25.101v0.325h2.72v-0.325c-0.141-0.03-0.252-0.077-0.33-0.14c-0.08-0.064-0.144-0.148-0.191-0.251
	c-0.05-0.104-0.111-0.278-0.183-0.526l-1.627-5.521h-1.316l-2.056,5.476c-0.085,0.234-0.167,0.414-0.241,0.538
	c-0.075,0.125-0.159,0.223-0.252,0.296c-0.091,0.072-0.198,0.115-0.32,0.127v0.325h2.105v-0.325
	c-0.343-0.022-0.512-0.195-0.512-0.517c0-0.138,0.015-0.269,0.043-0.391c0.03-0.124,0.067-0.25,0.114-0.382l0.163-0.469h2.104
	l0.133,0.484c0.054,0.19,0.092,0.348,0.115,0.472c0.022,0.125,0.033,0.239,0.033,0.341c0,0.137-0.041,0.244-0.123,0.32
	C179.228,25.034,179.103,25.081,178.931,25.101z M177.233,22.764l0.986-2.775l0.789,2.775H177.233z"/>
<path fill="#646464" d="M183.467,25.136c0.431,0.246,0.99,0.37,1.674,0.37c0.321,0,0.633-0.02,0.931-0.06
	c0.299-0.039,0.63-0.103,0.99-0.188v-1.494h-0.675c-0.065,0.293-0.143,0.519-0.233,0.68s-0.212,0.282-0.363,0.363
	c-0.152,0.081-0.347,0.121-0.586,0.121c-0.471,0-0.826-0.234-1.07-0.703c-0.244-0.469-0.365-1.158-0.365-2.068
	c0-0.979,0.135-1.719,0.4-2.216c0.265-0.498,0.658-0.746,1.179-0.746c0.276,0,0.498,0.087,0.671,0.264
	c0.169,0.176,0.296,0.45,0.373,0.82h0.672v-1.43c-0.294-0.082-0.574-0.141-0.843-0.176c-0.271-0.037-0.57-0.055-0.903-0.055
	c-0.653,0-1.216,0.144-1.686,0.429c-0.471,0.286-0.825,0.693-1.067,1.22c-0.241,0.528-0.361,1.147-0.361,1.861
	c0,0.763,0.103,1.393,0.307,1.891C182.715,24.517,183.034,24.889,183.467,25.136z"/>
<path fill="#646464" d="M190.298,24.908c-0.038-0.042-0.067-0.095-0.087-0.157c-0.019-0.063-0.033-0.144-0.039-0.242
	c-0.007-0.098-0.01-0.205-0.01-0.32v-1.977h2.228v1.977c0,0.279-0.012,0.463-0.035,0.554c-0.023,0.09-0.063,0.161-0.117,0.209
	c-0.056,0.05-0.18,0.099-0.37,0.148v0.327h2.573v-0.327c-0.174-0.042-0.294-0.095-0.359-0.157s-0.109-0.14-0.131-0.233
	s-0.033-0.267-0.033-0.52v-4.245c0-0.177,0.006-0.31,0.013-0.395c0.009-0.085,0.026-0.163,0.056-0.231
	c0.027-0.069,0.073-0.125,0.14-0.17c0.066-0.045,0.171-0.086,0.315-0.125v-0.326h-2.573v0.326c0.177,0.049,0.298,0.104,0.362,0.165
	c0.063,0.061,0.106,0.14,0.129,0.237c0.021,0.097,0.031,0.27,0.031,0.52v1.646h-2.228v-1.646c0-0.253,0.013-0.429,0.039-0.525
	c0.027-0.097,0.071-0.175,0.137-0.235c0.063-0.059,0.184-0.113,0.356-0.162v-0.326h-2.587v0.326c0.125,0.033,0.223,0.07,0.292,0.11
	c0.071,0.042,0.124,0.095,0.157,0.16c0.035,0.066,0.058,0.151,0.064,0.256c0.008,0.105,0.013,0.236,0.013,0.39v4.25
	c0,0.157-0.005,0.288-0.016,0.391c-0.01,0.104-0.031,0.189-0.065,0.258c-0.035,0.067-0.088,0.119-0.158,0.157
	c-0.071,0.038-0.167,0.072-0.288,0.105v0.325h2.587v-0.325c-0.096-0.023-0.175-0.05-0.241-0.081
	C190.388,24.989,190.335,24.952,190.298,24.908z"/>
<path fill="#646464" d="M197.9,18.663l-2.056,5.476c-0.086,0.234-0.167,0.414-0.242,0.538s-0.159,0.223-0.251,0.296
	c-0.092,0.072-0.199,0.115-0.32,0.127v0.325h2.104v-0.325c-0.342-0.022-0.513-0.195-0.513-0.517c0-0.138,0.016-0.269,0.045-0.391
	c0.028-0.124,0.066-0.25,0.113-0.382l0.162-0.469h2.104l0.134,0.484c0.053,0.19,0.091,0.348,0.114,0.472
	c0.022,0.125,0.034,0.239,0.034,0.341c0,0.137-0.042,0.244-0.125,0.32c-0.082,0.076-0.207,0.123-0.378,0.143v0.326h2.721v-0.326
	c-0.141-0.029-0.252-0.076-0.332-0.141c-0.077-0.063-0.142-0.148-0.189-0.25c-0.051-0.104-0.111-0.279-0.184-0.525l-1.627-5.521
	H197.9z M197.13,22.764l0.986-2.775l0.789,2.775H197.13z"/>
</svg>
