<?xml version="1.0" encoding="utf-8"?>
<!-- Generator: Adobe Illustrator 16.0.0, SVG Export Plug-In . SVG Version: 6.00 Build 0)  -->
<!DOCTYPE svg PUBLIC "-//W3C//DTD SVG 1.1//EN" "http://www.w3.org/Graphics/SVG/1.1/DTD/svg11.dtd">
<svg version="1.1" id="图层_1" xmlns="http://www.w3.org/2000/svg" xmlns:xlink="http://www.w3.org/1999/xlink" x="0px" y="0px"
	 width="54px" height="4px" viewBox="154.75 10.5 54 4" enable-background="new 154.75 10.5 54 4" xml:space="preserve">
<rect x="196.805" y="11.693" fill="none" width="1.02" height="1.703"/>
<rect x="182.277" y="11.693" fill="none" width="1.021" height="0.682"/>
<rect x="159.45" y="11.693" fill="none" width="1.021" height="0.682"/>
<rect x="159.45" y="12.715" fill="none" width="1.021" height="0.681"/>
<rect x="180.201" y="11.693" fill="none" width="1.022" height="0.682"/>
<rect x="155.64" y="11.354" fill="#626466" width="0.341" height="2.043"/>
<rect x="155.98" y="13.396" fill="#626466" width="0.339" height="0.34"/>
<rect x="154.958" y="11.354" fill="#626466" width="0.34" height="2.043"/>
<rect x="155.298" y="13.396" fill="#626466" width="0.341" height="0.34"/>
<rect x="156.32" y="11.354" fill="#626466" width="0.341" height="2.043"/>
<polygon fill="#626466" points="157.033,13.736 158.736,13.736 158.736,13.396 157.374,13.396 157.374,12.715 158.396,12.715 
	158.396,12.375 157.374,12.375 157.374,11.693 158.736,11.693 158.736,11.354 157.033,11.354 "/>
<rect x="160.471" y="11.693" fill="#626466" width="0.34" height="0.682"/>
<polygon fill="#626466" points="159.45,11.693 160.471,11.693 160.471,11.354 159.109,11.354 159.109,13.736 160.471,13.736 
	160.471,13.396 159.45,13.396 159.45,12.715 160.471,12.715 160.471,12.375 159.45,12.375 "/>
<rect x="160.471" y="12.715" fill="#626466" width="0.34" height="0.681"/>
<rect x="161.184" y="11.693" fill="#626466" width="0.341" height="0.682"/>
<rect x="162.546" y="12.715" fill="#626466" width="0.34" height="0.681"/>
<rect x="161.525" y="11.354" fill="#626466" width="1.361" height="0.34"/>
<rect x="161.525" y="12.375" fill="#626466" width="1.021" height="0.34"/>
<rect x="161.184" y="13.396" fill="#626466" width="1.363" height="0.34"/>
<polygon fill="#626466" points="163.6,11.693 163.94,11.693 163.94,13.396 163.6,13.396 163.6,13.736 164.622,13.736 
	164.622,13.396 164.281,13.396 164.281,11.693 164.622,11.693 164.622,11.354 163.6,11.354 "/>
<polygon fill="#626466" points="165.335,11.693 166.016,11.693 166.016,13.736 166.356,13.736 166.356,11.693 167.037,11.693 
	167.037,11.354 165.335,11.354 "/>
<polygon fill="#626466" points="167.41,13.736 169.112,13.736 169.112,13.396 167.75,13.396 167.75,12.715 168.771,12.715 
	168.771,12.375 167.75,12.375 167.75,11.693 169.112,11.693 169.112,11.354 167.41,11.354 "/>
<polygon fill="#626466" points="171.901,11.693 172.242,11.693 172.242,13.396 171.901,13.396 171.901,13.736 172.921,13.736 
	172.921,13.396 172.582,13.396 172.582,11.693 172.921,11.693 172.921,11.354 171.901,11.354 "/>
<rect x="174.316" y="12.375" fill="#626466" width="0.341" height="0.34"/>
<polygon fill="#626466" points="174.998,12.715 174.657,12.715 174.657,13.396 174.998,13.396 174.998,13.736 175.337,13.736 
	175.337,11.354 174.998,11.354 "/>
<polygon fill="#626466" points="173.976,11.693 173.976,11.354 173.636,11.354 173.636,13.736 173.976,13.736 173.976,12.375 
	174.316,12.375 174.316,11.693 "/>
<polygon fill="#626466" points="175.71,11.693 176.392,11.693 176.392,13.736 176.732,13.736 176.732,11.693 177.413,11.693 
	177.413,11.354 175.71,11.354 "/>
<polygon fill="#626466" points="177.785,13.736 179.489,13.736 179.489,13.396 178.126,13.396 178.126,12.715 179.148,12.715 
	179.148,12.375 178.126,12.375 178.126,11.693 179.489,11.693 179.489,11.354 177.785,11.354 "/>
<polygon fill="#626466" points="180.201,11.693 181.223,11.693 181.223,11.354 179.861,11.354 179.861,13.736 180.201,13.736 
	180.201,12.715 181.223,12.715 181.223,12.375 180.201,12.375 "/>
<rect x="181.223" y="11.693" fill="#626466" width="0.34" height="0.682"/>
<rect x="181.223" y="12.715" fill="#626466" width="0.34" height="1.021"/>
<rect x="182.277" y="11.354" fill="#626466" width="1.021" height="0.34"/>
<polygon fill="#626466" points="183.299,12.375 182.277,12.375 182.277,11.693 181.936,11.693 181.936,13.736 182.277,13.736 
	182.277,12.715 183.299,12.715 183.299,13.736 183.639,13.736 183.639,11.693 183.299,11.693 "/>
<rect x="185.373" y="11.693" fill="#626466" width="0.34" height="0.341"/>
<rect x="185.373" y="13.057" fill="#626466" width="0.34" height="0.34"/>
<rect x="184.352" y="11.354" fill="#626466" width="1.021" height="0.34"/>
<rect x="184.352" y="13.396" fill="#626466" width="1.021" height="0.34"/>
<rect x="184.012" y="11.693" fill="#626466" width="0.34" height="1.703"/>
<polygon fill="#626466" points="186.086,11.693 186.77,11.693 186.77,13.736 187.107,13.736 187.107,11.693 187.789,11.693 
	187.789,11.354 186.086,11.354 "/>
<polygon fill="#626466" points="188.502,11.693 188.842,11.693 188.842,13.396 188.502,13.396 188.502,13.736 189.523,13.736 
	189.523,13.396 189.184,13.396 189.184,11.693 189.523,11.693 189.523,11.354 188.502,11.354 "/>
<rect x="191.26" y="13.057" fill="#626466" width="0.34" height="0.34"/>
<rect x="190.918" y="13.396" fill="#626466" width="0.342" height="0.34"/>
<rect x="190.236" y="11.354" fill="#626466" width="0.342" height="1.703"/>
<rect x="191.6" y="11.354" fill="#626466" width="0.34" height="1.703"/>
<rect x="190.578" y="13.057" fill="#626466" width="0.34" height="0.34"/>
<polygon fill="#626466" points="192.313,13.736 194.016,13.736 194.016,13.396 192.652,13.396 192.652,12.715 193.674,12.715 
	193.674,12.375 192.652,12.375 192.652,11.693 194.016,11.693 194.016,11.354 192.313,11.354 "/>
<rect x="197.824" y="11.693" fill="#626466" width="0.342" height="1.703"/>
<polygon fill="#626466" points="196.805,11.693 197.824,11.693 197.824,11.354 196.463,11.354 196.463,13.736 197.824,13.736 
	197.824,13.396 196.805,13.396 "/>
<polygon fill="#626466" points="198.537,13.736 200.24,13.736 200.24,13.396 198.879,13.396 198.879,12.715 199.9,12.715 
	199.9,12.375 198.879,12.375 198.879,11.693 200.24,11.693 200.24,11.354 198.537,11.354 "/>
<rect x="200.613" y="13.396" fill="#626466" width="1.363" height="0.34"/>
<rect x="201.977" y="12.715" fill="#626466" width="0.34" height="0.681"/>
<rect x="200.953" y="11.354" fill="#626466" width="1.363" height="0.34"/>
<rect x="200.953" y="12.375" fill="#626466" width="1.023" height="0.34"/>
<rect x="200.613" y="11.693" fill="#626466" width="0.34" height="0.682"/>
<polygon fill="#626466" points="203.029,11.693 203.369,11.693 203.369,13.396 203.029,13.396 203.029,13.736 204.051,13.736 
	204.051,13.396 203.709,13.396 203.709,11.693 204.051,11.693 204.051,11.354 203.029,11.354 "/>
<rect x="205.104" y="11.354" fill="#626466" width="1.021" height="0.34"/>
<polygon fill="#626466" points="206.465,12.375 205.445,12.375 205.445,12.715 206.125,12.715 206.125,13.396 206.465,13.396 "/>
<rect x="205.104" y="13.396" fill="#626466" width="1.021" height="0.34"/>
<rect x="204.764" y="11.693" fill="#626466" width="0.34" height="1.703"/>
<rect x="206.125" y="11.693" fill="#626466" width="0.34" height="0.341"/>
<rect x="207.52" y="12.375" fill="#626466" width="0.34" height="0.34"/>
<polygon fill="#626466" points="207.18,11.693 207.18,11.354 206.838,11.354 206.838,13.736 207.18,13.736 207.18,12.375 
	207.52,12.375 207.52,11.693 "/>
<polygon fill="#626466" points="208.201,11.354 208.201,12.715 207.859,12.715 207.859,13.396 208.201,13.396 208.201,13.736 
	208.541,13.736 208.541,11.354 "/>
</svg>
