<?xml version="1.0" encoding="utf-8"?>
<!-- Generator: Adobe Illustrator 15.0.0, SVG Export Plug-In . SVG Version: 6.00 Build 0)  -->
<!DOCTYPE svg PUBLIC "-//W3C//DTD SVG 1.1//EN" "http://www.w3.org/Graphics/SVG/1.1/DTD/svg11.dtd">
<svg version="1.1" id="图层_1" xmlns="http://www.w3.org/2000/svg" xmlns:xlink="http://www.w3.org/1999/xlink" x="0px" y="0px"
	 width="24px" height="24px" viewBox="0 0 24 24" enable-background="new 0 0 24 24" xml:space="preserve">
<path fill="#C61E2D" d="M12,18.984c3.891,0,6.984-3.094,6.984-6.984c0-3.89-3.094-6.984-6.984-6.984C8.11,5.016,5.016,8.11,5.016,12
	C5.016,15.891,8.11,18.984,12,18.984z M20.953,11.016h2.063v1.968h-2.063c-0.469,4.173-3.797,7.5-7.969,7.97v2.063h-1.969v-2.063
	c-4.172-0.47-7.5-3.797-7.969-7.97H0.983v-1.968h2.063c0.469-4.172,3.797-7.5,7.969-7.969V0.984h1.969v2.063
	C17.156,3.516,20.484,6.844,20.953,11.016z M12,8.016c2.203,0,3.984,1.781,3.984,3.984S14.203,15.984,12,15.984
	S8.016,14.203,8.016,12S9.797,8.016,12,8.016z"/>
</svg>
