<?xml version="1.0" encoding="utf-8"?>
<!-- Generator: Adobe Illustrator 16.0.0, SVG Export Plug-In . SVG Version: 6.00 Build 0)  -->
<!DOCTYPE svg PUBLIC "-//W3C//DTD SVG 1.1//EN" "http://www.w3.org/Graphics/SVG/1.1/DTD/svg11.dtd">
<svg version="1.1" xmlns="http://www.w3.org/2000/svg" xmlns:xlink="http://www.w3.org/1999/xlink" x="0px" y="0px" width="100px"
	 height="100px" viewBox="0 0 100 100" enable-background="new 0 0 100 100" xml:space="preserve">
<g id="图层_1" display="none">
	<path display="inline" fill="#FFFFFF" d="M78.905,26.341H19.011c-3.002,0-5.445,2.443-5.445,5.445v40.44
		c0,3.003,2.443,5.445,5.445,5.445h59.894c3.002,0,5.445-2.442,5.445-5.445v-40.44C84.351,28.785,81.907,26.341,78.905,26.341z
		 M16.289,40.252h65.339v10.393H16.289V40.252z M19.011,29.063h59.894c1.502,0,2.723,1.222,2.723,2.723v5.743H16.289v-5.743
		C16.289,30.285,17.51,29.063,19.011,29.063z M78.905,74.949H19.011c-1.501,0-2.723-1.221-2.723-2.723V53.367h65.339v18.859
		C81.628,73.729,80.407,74.949,78.905,74.949z M45.457,63.557c0,0.752-0.608,1.359-1.361,1.359H25.258
		c-0.752,0-1.36-0.607-1.36-1.359c0-0.754,0.608-1.361,1.36-1.361h18.837C44.849,62.195,45.457,62.803,45.457,63.557z"/>
</g>
<g id="图层_2">
	<path fill="#FFFFFF" d="M25.119,58.566c-2.648,0-4.795-2.188-4.795-4.89c0-2.705,2.147-4.892,4.795-4.892
		c2.65,0,4.798,2.188,4.798,4.892C29.917,56.378,27.77,58.566,25.119,58.566L25.119,58.566z M68.841,40.748
		c-11.828,0-21.457,9.584-21.457,21.366c0,11.782,9.628,21.358,21.457,21.358c11.833,0,21.454-9.578,21.454-21.357
		C90.295,50.332,80.674,40.748,68.841,40.748L68.841,40.748z M68.841,78.444c-9.045,0-16.405-7.325-16.405-16.331
		c0-9.005,7.36-16.329,16.405-16.329c9.049,0,16.399,7.324,16.399,16.329C85.24,71.119,77.89,78.444,68.841,78.444L68.841,78.444z
		 M76.42,66.836c0.736,0,1.386,0.502,1.386,1.218c0,0.609-0.649,1.147-1.385,1.147h-6.777v4.158c0,0.606-0.563,1.146-1.424,1.146
		c-0.778,0-1.384-0.54-1.384-1.146v-4.158h-6.781c-0.732,0-1.338-0.538-1.338-1.219c0-0.645,0.605-1.146,1.338-1.146h6.781v-3.584
		h-6.781c-0.732,0-1.338-0.467-1.338-1.22c0-0.607,0.605-1.112,1.338-1.112h5.746l-5.919-9.496
		c-0.389-0.536-0.129-1.217,0.646-1.539c0.65-0.25,1.471-0.035,1.816,0.466l5.959,9.531l5.916-9.568
		c0.347-0.537,1.209-0.789,1.857-0.428c0.735,0.25,0.952,0.967,0.606,1.502v-0.035l-5.919,9.567h5.656
		c0.736,0,1.385,0.504,1.385,1.183c0,0.682-0.649,1.148-1.385,1.148h-6.777v3.584H76.42L76.42,66.836z"/>
	<path fill="#FFFFFF" d="M26.004,67.394h16.15v-5.353H17.112V50.72c0-1.72,1.625-3.531,1.992-3.636
		c0.367-0.104,20.694-0.104,25.466-0.104h4.771c0,0,1.814-3.294,5.813-5.353H23.221c1.311-3.769,4.03-11.542,4.555-12.65
		c0.699-1.472,2.534-1.604,3.372-1.604c1.734,0,25.327-0.192,27.229,0c1.903,0.193,3.528,1.792,4.041,2.306
		c0.513,0.512,2.704,6.732,2.726,6.802h5.448c-0.032-0.103-2.859-8.421-3.438-9.3c-1.098-1.663-3.967-5.161-8.776-5.161H31.148
		c-2.194,0-4.075,0.63-5.738,1.757c-1.662,1.124-1.826,1.987-2.254,2.571l-5.892,15.368c-2.424,0.306-5.503,1.681-5.503,7.833
		v17.845h5.681v6.775v0.001c0,2.364,1.917,4.28,4.282,4.28c2.365,0,4.282-1.916,4.282-4.28v-0.001L26.004,67.394L26.004,67.394z"/>
</g>
<g id="图层_3" display="none">
	<path display="inline" fill="#FFFFFF" d="M22.056,67.322c0-4.33-0.013-8.66,0.012-12.99c0.004-0.758,0.074-1.539,0.279-2.264
		c0.228-0.811,0.874-1.257,1.746-1.224c0.867,0.035,1.483,0.527,1.673,1.339c0.171,0.736,0.183,1.52,0.184,2.283
		c0.012,7.473,0.055,14.945-0.025,22.418c-0.02,1.803,0.501,2.508,2.374,2.426c2.928-0.129,5.869-0.125,8.796-0.002
		c1.877,0.08,2.596-0.48,2.54-2.465c-0.13-4.676,0.017-9.359-0.069-14.037c-0.033-1.744,0.628-2.34,2.322-2.318
		c4.748,0.064,9.498,0.074,14.245-0.004c1.942-0.033,2.547,0.771,2.511,2.633c-0.089,4.537,0.063,9.08-0.068,13.615
		c-0.06,2.068,0.699,2.67,2.669,2.578c2.927-0.135,5.867-0.111,8.796-0.006c1.738,0.064,2.298-0.561,2.282-2.289
		C72.25,69.543,72.29,62.07,72.294,54.6c0.001-0.699-0.015-1.402,0.068-2.092c0.112-0.938,0.672-1.548,1.628-1.634
		c0.96-0.088,1.634,0.425,1.871,1.333c0.192,0.732,0.29,1.512,0.291,2.271c0.021,8.658,0.024,17.318,0.009,25.979
		c-0.005,2.523-0.212,2.711-2.779,2.717c-5.378,0.014-10.756-0.049-16.133,0.033c-1.865,0.029-2.617-0.547-2.571-2.512
		c0.111-4.746-0.006-9.498,0.057-14.246c0.02-1.518-0.473-2.15-2.047-2.088c-2.371,0.092-4.75,0.09-7.122,0
		c-1.568-0.061-2.079,0.572-2.06,2.09c0.058,4.678,0.028,9.357,0.015,14.037c-0.008,2.578-0.116,2.682-2.753,2.688
		c-5.378,0.01-10.757-0.068-16.132,0.039c-2.052,0.043-2.662-0.732-2.614-2.695C22.127,76.123,22.055,71.721,22.056,67.322
		L22.056,67.322z"/>
	<path display="inline" fill="#FFFFFF" d="M14.304,53.229c-1.464,0.041-2.373-1.508-1.585-2.814c0.352-0.585,0.89-1.072,1.396-1.546
		c11.162-10.441,22.354-20.849,33.47-31.337c1.453-1.37,2.292-0.615,3.3,0.329c5.143,4.821,10.273,9.653,15.423,14.467
		c5.86,5.483,11.751,10.935,17.591,16.438c1.11,1.047,2.93,2.21,1.257,3.94c-1.566,1.623-2.775-0.061-3.849-1.061
		C71.039,42.09,60.766,32.538,50.575,22.9c-1.283-1.213-2.035-0.936-3.093,0.06c-5.335,5.023-10.687,10.03-16.049,15.024
		c-5.106,4.757-10.231,9.492-15.35,14.237C15.571,52.693,15.066,53.191,14.304,53.229L14.304,53.229z"/>
	<path display="inline" fill="#FFFFFF" d="M68.396,22.242c1.956,0,3.914,0.044,5.868-0.016c1.353-0.041,1.906,0.558,1.896,1.863
		c-0.024,3.423,0.022,6.848-0.05,10.269c-0.026,1.32-0.447,2.665-2.099,2.586c-1.555-0.073-1.719-1.373-1.717-2.637
		c0.001-2.095-0.051-4.192,0.009-6.287c0.038-1.351-0.513-1.893-1.854-1.862c-2.164,0.051-4.331,0.021-6.496,0.001
		c-0.696-0.006-1.405-0.02-2.082-0.161c-1.039-0.215-1.84-0.768-1.752-1.984c0.087-1.193,0.898-1.71,1.989-1.734
		c2.096-0.046,4.19-0.013,6.286-0.013C68.396,22.259,68.396,22.25,68.396,22.242L68.396,22.242z"/>
</g>
<g id="图层_4" display="none">
	<path display="inline" fill="#FFFFFF" d="M59.435,54.25c6.6-3.771,10.842-10.369,10.842-18.382
		c0-11.784-9.427-21.211-21.211-21.211c-11.784,0-21.211,9.427-21.211,21.211c0,8.013,4.242,14.611,10.841,18.382
		c-11.784,4.241-20.268,15.554-20.268,28.753c0,1.413,0.943,2.356,2.357,2.356s2.356-0.943,2.356-2.356
		c0-14.141,11.313-25.453,25.453-25.925h0.943C63.678,57.55,74.99,68.862,74.99,83.003c0,1.413,0.941,2.356,2.356,2.356
		c1.413,0,2.356-0.943,2.356-2.356C79.703,69.804,71.219,58.491,59.435,54.25z M32.568,35.868c0-8.956,7.542-16.498,16.497-16.498
		c8.956,0,16.497,7.542,16.497,16.498c0,8.955-7.07,16.026-16.025,16.498h-0.472h-0.472C39.639,51.894,32.568,44.823,32.568,35.868z
		"/>
</g>
<g id="图层_5" display="none">
	<path display="inline" fill="#E71F19" d="M75.317,26.237c-13.915-13.914-36.475-13.914-50.39,0
		c-13.914,13.915-13.914,36.475,0,50.39c13.916,13.913,36.475,13.913,50.39,0C89.232,62.713,89.232,40.152,75.317,26.237
		L75.317,26.237z M73.025,74.335c-12.648,12.649-33.159,12.649-45.808,0c-12.649-12.648-12.649-33.159,0-45.808
		s33.159-12.648,45.808,0C85.675,41.176,85.676,61.687,73.025,74.335z M32.745,69.034l23.63-11.032l11.031-23.63L43.777,45.404
		L32.745,69.034z M54.084,55.711l-16.717,8.703l8.702-16.718L54.084,55.711z"/>
</g>
<g id="图层_6" display="none">
	<path display="inline" fill="#FFFFFF" d="M81.598,29.047c-0.464-2.65-2.303-3.313-3.071-3.475l-0.219-0.046h-1.25
		c-0.045-0.003-0.091-0.005-0.139-0.005h-2.245c-0.046,0-0.093,0.002-0.139,0.005h-0.127v0.015
		c-0.901,0.128-1.596,0.905-1.596,1.842v0.581c0,0.938,0.694,1.713,1.596,1.842v0.019h0.212c0.019,0,0.036,0,0.055,0h2.244
		c0.019,0,0.036,0,0.055,0h0.397c0.033,0.226,0.043,0.527,0.015,0.768l-0.018,0.12v45.103c-0.087,1.298-0.527,2.271-1.31,2.898
		c-0.47,0.376-0.952,0.543-1.171,0.604H71.39l0.002-0.052c-1.393-0.055-2.234-0.577-2.726-1.698
		c-0.431-0.979-0.418-2.025-0.415-2.132l0.002-0.032V28.539c0.141-2.611-0.502-4.612-1.909-5.95
		c-1.614-1.534-3.612-1.547-4.22-1.513H24.941h-0.019c-1.639,0.014-3.04,0.615-4.049,1.739c-1.837,2.044-1.729,5.128-1.675,5.853
		v46.727c-0.018,0.433-0.024,2.066,0.743,3.778c1.178,2.625,3.606,4.2,6.837,4.433l0.077,0.004h48.429l0.159-0.021
		c0.26-0.04,1.62-0.288,3.036-1.321c1.341-0.982,2.984-2.864,3.181-6.267l0.004-0.062V30.99
		C81.699,30.644,81.743,29.883,81.598,29.047L81.598,29.047z M27.015,79.314c-1.017-0.08-2.407-0.37-3.104-1.797
		c-0.433-0.885-0.423-1.815-0.419-1.933l0.003-0.042v-47.07l-0.01-0.105c-0.048-0.488,0-2.031,0.583-2.679
		c0.137-0.153,0.348-0.309,0.881-0.315H62.2l0.068,0.014l0.144-0.023c0.116-0.001,0.645,0.012,0.992,0.359
		c0.432,0.432,0.63,1.365,0.556,2.628l-0.005,0.063v46.866c-0.015,0.438-0.021,2.216,0.785,4.033H27.015L27.015,79.314
		L27.015,79.314z M59.32,32.111c0,1.246-1.01,2.254-2.256,2.254H30.21c-1.246,0-2.255-1.008-2.255-2.254l0,0
		c0-1.247,1.01-2.256,2.255-2.256h26.854C58.311,29.855,59.32,30.865,59.32,32.111L59.32,32.111L59.32,32.111z M59.32,72.605
		L59.32,72.605"/>
	<path display="inline" fill="#FFFFFF" d="M59.245,44.644c0,1.245-1.011,2.256-2.256,2.256H30.136c-1.246,0-2.256-1.011-2.256-2.256
		l0,0c0-1.246,1.01-2.256,2.256-2.256h26.854C58.234,42.388,59.245,43.398,59.245,44.644"/>
	<path display="inline" fill="#FFFFFF" d="M59.245,56.905c0,1.246-1.011,2.254-2.256,2.254H30.136c-1.246,0-2.256-1.008-2.256-2.254
		l0,0c0-1.248,1.01-2.257,2.256-2.257h26.854C58.234,54.648,59.245,55.657,59.245,56.905"/>
	<path display="inline" fill="#FFFFFF" d="M41.414,69.227c0,1.245-1.009,2.257-2.255,2.257h-9.023c-1.246,0-2.256-1.012-2.256-2.257
		l0,0c0-1.245,1.01-2.254,2.256-2.254h9.023C40.405,66.973,41.414,67.981,41.414,69.227L41.414,69.227L41.414,69.227z"/>
</g>
</svg>
