<?xml version="1.0" encoding="utf-8"?>
<!-- Generator: Adobe Illustrator 16.0.0, SVG Export Plug-In . SVG Version: 6.00 Build 0)  -->
<!DOCTYPE svg PUBLIC "-//W3C//DTD SVG 1.1//EN" "http://www.w3.org/Graphics/SVG/1.1/DTD/svg11.dtd">
<svg version="1.1" xmlns="http://www.w3.org/2000/svg" xmlns:xlink="http://www.w3.org/1999/xlink" x="0px" y="0px" width="100px"
	 height="100px" viewBox="0 0 100 100" enable-background="new 0 0 100 100" xml:space="preserve">
<g id="图层_1" display="none">
	<path display="inline" fill="#FFFFFF" d="M78.905,26.341H19.011c-3.002,0-5.445,2.443-5.445,5.445v40.44
		c0,3.003,2.443,5.445,5.445,5.445h59.894c3.002,0,5.445-2.442,5.445-5.445v-40.44C84.351,28.785,81.907,26.341,78.905,26.341z
		 M16.289,40.252h65.339v10.393H16.289V40.252z M19.011,29.063h59.894c1.502,0,2.723,1.222,2.723,2.723v5.743H16.289v-5.743
		C16.289,30.285,17.51,29.063,19.011,29.063z M78.905,74.949H19.011c-1.501,0-2.723-1.221-2.723-2.723V53.367h65.339v18.859
		C81.628,73.729,80.407,74.949,78.905,74.949z M45.457,63.557c0,0.752-0.608,1.359-1.361,1.359H25.258
		c-0.752,0-1.36-0.607-1.36-1.359c0-0.754,0.608-1.361,1.36-1.361h18.837C44.849,62.195,45.457,62.803,45.457,63.557z"/>
</g>
<g id="图层_2" display="none">
	<path display="inline" fill="#FFFFFF" d="M25.119,58.566c-2.648,0-4.795-2.188-4.795-4.89c0-2.705,2.147-4.892,4.795-4.892
		c2.65,0,4.798,2.188,4.798,4.892C29.917,56.378,27.77,58.566,25.119,58.566L25.119,58.566z M68.841,40.748
		c-11.828,0-21.457,9.584-21.457,21.366c0,11.782,9.628,21.358,21.457,21.358c11.833,0,21.454-9.578,21.454-21.357
		C90.295,50.332,80.674,40.748,68.841,40.748L68.841,40.748z M68.841,78.444c-9.045,0-16.405-7.325-16.405-16.331
		c0-9.005,7.36-16.329,16.405-16.329c9.049,0,16.399,7.324,16.399,16.329C85.24,71.119,77.89,78.444,68.841,78.444L68.841,78.444z
		 M76.42,66.836c0.736,0,1.386,0.502,1.386,1.218c0,0.609-0.649,1.147-1.385,1.147h-6.777v4.158c0,0.606-0.563,1.146-1.424,1.146
		c-0.778,0-1.384-0.54-1.384-1.146v-4.158h-6.781c-0.732,0-1.338-0.538-1.338-1.219c0-0.645,0.605-1.146,1.338-1.146h6.781v-3.584
		h-6.781c-0.732,0-1.338-0.467-1.338-1.22c0-0.607,0.605-1.112,1.338-1.112h5.746l-5.919-9.496
		c-0.389-0.536-0.129-1.217,0.646-1.539c0.65-0.25,1.471-0.035,1.816,0.466l5.959,9.531l5.916-9.568
		c0.347-0.537,1.209-0.789,1.857-0.428c0.735,0.25,0.952,0.967,0.606,1.502v-0.035l-5.919,9.567h5.656
		c0.736,0,1.385,0.504,1.385,1.183c0,0.682-0.649,1.148-1.385,1.148h-6.777v3.584H76.42L76.42,66.836z"/>
	<path display="inline" fill="#FFFFFF" d="M26.004,67.394h16.15v-5.353H17.112V50.72c0-1.72,1.625-3.531,1.992-3.636
		c0.367-0.104,20.694-0.104,25.466-0.104h4.771c0,0,1.814-3.294,5.813-5.353H23.221c1.311-3.769,4.03-11.542,4.555-12.65
		c0.699-1.472,2.534-1.604,3.372-1.604c1.734,0,25.327-0.192,27.229,0c1.903,0.193,3.528,1.792,4.041,2.306
		c0.513,0.512,2.704,6.732,2.726,6.802h5.448c-0.032-0.103-2.859-8.421-3.438-9.3c-1.098-1.663-3.967-5.161-8.776-5.161H31.148
		c-2.194,0-4.075,0.63-5.738,1.757c-1.662,1.124-1.826,1.987-2.254,2.571l-5.892,15.368c-2.424,0.306-5.503,1.681-5.503,7.833
		v17.845h5.681v6.775v0.001c0,2.364,1.917,4.28,4.282,4.28c2.365,0,4.282-1.916,4.282-4.28v-0.001L26.004,67.394L26.004,67.394z"/>
</g>
<g id="图层_3" display="none">
	<path display="inline" fill="#FFFFFF" d="M23.853,69.957c0-4.102-0.012-8.203,0.012-12.305c0.004-0.719,0.07-1.459,0.264-2.145
		c0.216-0.768,0.828-1.191,1.654-1.16c0.821,0.033,1.405,0.5,1.584,1.27c0.163,0.697,0.173,1.439,0.174,2.162
		c0.012,7.08,0.052,14.158-0.023,21.238c-0.019,1.707,0.475,2.375,2.249,2.297c2.773-0.121,5.56-0.119,8.333-0.002
		c1.778,0.076,2.459-0.455,2.406-2.334c-0.124-4.43,0.016-8.867-0.065-13.299c-0.031-1.652,0.595-2.217,2.2-2.195
		c4.498,0.061,8.998,0.07,13.495-0.004c1.84-0.031,2.413,0.73,2.379,2.494c-0.084,4.299,0.059,8.602-0.065,12.898
		c-0.056,1.959,0.663,2.529,2.528,2.441c2.773-0.127,5.559-0.105,8.333-0.006c1.646,0.063,2.177-0.531,2.162-2.168
		c-0.069-7.078-0.031-14.158-0.028-21.234c0.001-0.662-0.014-1.328,0.065-1.982c0.106-0.889,0.636-1.467,1.542-1.549
		c0.909-0.082,1.548,0.404,1.772,1.264c0.183,0.693,0.274,1.432,0.275,2.152c0.02,8.201,0.023,16.406,0.009,24.609
		c-0.005,2.391-0.201,2.568-2.633,2.574c-5.095,0.014-10.189-0.047-15.283,0.031c-1.767,0.027-2.479-0.518-2.436-2.379
		c0.105-4.496-0.006-8.998,0.054-13.496c0.019-1.438-0.448-2.037-1.939-1.979c-2.246,0.088-4.5,0.086-6.746,0
		c-1.486-0.057-1.97,0.543-1.952,1.98c0.055,4.432,0.027,8.865,0.014,13.297c-0.007,2.443-0.109,2.541-2.608,2.547
		c-5.094,0.01-10.19-0.064-15.282,0.037c-1.944,0.041-2.521-0.693-2.477-2.553C23.921,78.295,23.852,74.125,23.853,69.957
		L23.853,69.957z"/>
	<path display="inline" fill="#FFFFFF" d="M16.51,56.607c-1.387,0.039-2.248-1.43-1.501-2.666c0.333-0.555,0.843-1.016,1.323-1.465
		c10.574-9.891,21.176-19.75,31.707-29.687c1.376-1.298,2.172-0.583,3.126,0.312c4.872,4.567,9.732,9.144,14.61,13.705
		C71.326,42,76.906,47.165,82.438,52.379c1.052,0.992,2.775,2.094,1.191,3.732c-1.484,1.537-2.63-0.059-3.646-1.006
		c-9.728-9.051-19.46-18.099-29.113-27.229c-1.216-1.149-1.928-0.887-2.93,0.057c-5.054,4.759-10.124,9.501-15.203,14.232
		c-4.837,4.506-9.693,8.992-14.542,13.487C17.71,56.1,17.232,56.572,16.51,56.607L16.51,56.607z"/>
	<path display="inline" fill="#FFFFFF" d="M67.753,27.253c1.853,0,3.708,0.042,5.559-0.015c1.281-0.039,1.806,0.528,1.797,1.765
		c-0.023,3.243,0.021,6.487-0.048,9.728c-0.024,1.25-0.423,2.524-1.987,2.45c-1.473-0.069-1.629-1.3-1.627-2.498
		c0.001-1.985-0.048-3.971,0.009-5.956c0.036-1.28-0.486-1.793-1.756-1.764c-2.05,0.048-4.104,0.021-6.154,0.001
		c-0.659-0.006-1.331-0.019-1.972-0.152c-0.984-0.204-1.743-0.728-1.66-1.879c0.082-1.13,0.852-1.62,1.885-1.643
		c1.985-0.043,3.97-0.013,5.955-0.013C67.753,27.269,67.753,27.26,67.753,27.253L67.753,27.253z"/>
</g>
<g id="图层_4">
	<path fill="#FFFFFF" d="M59.746,57.12c6.203-3.544,10.19-9.746,10.19-17.277c0-11.076-8.86-19.936-19.937-19.936
		c-11.075,0-19.936,8.86-19.936,19.936c0,7.531,3.987,13.733,10.19,17.277c-11.075,3.986-19.05,14.619-19.05,27.024
		c0,1.328,0.886,2.215,2.215,2.215s2.215-0.887,2.215-2.215c0-13.291,10.632-23.923,23.922-24.366h0.887
		c13.291,0.443,23.923,11.075,23.923,24.366c0,1.328,0.885,2.215,2.215,2.215c1.328,0,2.215-0.887,2.215-2.215
		C78.796,71.739,70.822,61.106,59.746,57.12z M34.495,39.843c0-8.418,7.088-15.506,15.505-15.506
		c8.418,0,15.506,7.088,15.506,15.506c0,8.417-6.646,15.063-15.063,15.506H50h-0.443C41.14,54.905,34.495,48.259,34.495,39.843z"/>
</g>
<g id="图层_5" display="none">
	<path display="inline" fill="#E71F19" d="M75.317,26.237c-13.915-13.914-36.475-13.914-50.39,0
		c-13.914,13.915-13.914,36.475,0,50.39c13.916,13.913,36.475,13.913,50.39,0C89.232,62.713,89.232,40.152,75.317,26.237
		L75.317,26.237z M73.025,74.335c-12.648,12.649-33.159,12.649-45.808,0c-12.649-12.648-12.649-33.159,0-45.808
		s33.159-12.648,45.808,0C85.675,41.176,85.676,61.687,73.025,74.335z M32.745,69.034l23.63-11.032l11.031-23.63L43.777,45.404
		L32.745,69.034z M54.084,55.711l-16.717,8.703l8.702-16.718L54.084,55.711z"/>
</g>
<g id="图层_6" display="none">
	<path display="inline" fill="#FFFFFF" d="M81.598,29.047c-0.464-2.65-2.303-3.313-3.071-3.475l-0.219-0.046h-1.25
		c-0.045-0.003-0.091-0.005-0.139-0.005h-2.245c-0.046,0-0.093,0.002-0.139,0.005h-0.127v0.015
		c-0.901,0.128-1.596,0.905-1.596,1.842v0.581c0,0.938,0.694,1.713,1.596,1.842v0.019h0.212c0.019,0,0.036,0,0.055,0h2.244
		c0.019,0,0.036,0,0.055,0h0.397c0.033,0.226,0.043,0.527,0.015,0.768l-0.018,0.12v45.103c-0.087,1.298-0.527,2.271-1.31,2.898
		c-0.47,0.376-0.952,0.543-1.171,0.604H71.39l0.002-0.052c-1.393-0.055-2.234-0.577-2.726-1.698
		c-0.431-0.979-0.418-2.025-0.415-2.132l0.002-0.032V28.539c0.141-2.611-0.502-4.612-1.909-5.95
		c-1.614-1.534-3.612-1.547-4.22-1.513H24.941h-0.019c-1.639,0.014-3.04,0.615-4.049,1.739c-1.837,2.044-1.729,5.128-1.675,5.853
		v46.727c-0.018,0.433-0.024,2.066,0.743,3.778c1.178,2.625,3.606,4.2,6.837,4.433l0.077,0.004h48.429l0.159-0.021
		c0.26-0.04,1.62-0.288,3.036-1.321c1.341-0.982,2.984-2.864,3.181-6.267l0.004-0.062V30.99
		C81.699,30.644,81.743,29.883,81.598,29.047L81.598,29.047z M27.015,79.314c-1.017-0.08-2.407-0.37-3.104-1.797
		c-0.433-0.885-0.423-1.815-0.419-1.933l0.003-0.042v-47.07l-0.01-0.105c-0.048-0.488,0-2.031,0.583-2.679
		c0.137-0.153,0.348-0.309,0.881-0.315H62.2l0.068,0.014l0.144-0.023c0.116-0.001,0.645,0.012,0.992,0.359
		c0.432,0.432,0.63,1.365,0.556,2.628l-0.005,0.063v46.866c-0.015,0.438-0.021,2.216,0.785,4.033H27.015L27.015,79.314
		L27.015,79.314z M59.32,32.111c0,1.246-1.01,2.254-2.256,2.254H30.21c-1.246,0-2.255-1.008-2.255-2.254l0,0
		c0-1.247,1.01-2.256,2.255-2.256h26.854C58.311,29.855,59.32,30.865,59.32,32.111L59.32,32.111L59.32,32.111z M59.32,72.605
		L59.32,72.605"/>
	<path display="inline" fill="#FFFFFF" d="M59.245,44.644c0,1.245-1.011,2.256-2.256,2.256H30.136c-1.246,0-2.256-1.011-2.256-2.256
		l0,0c0-1.246,1.01-2.256,2.256-2.256h26.854C58.234,42.388,59.245,43.398,59.245,44.644"/>
	<path display="inline" fill="#FFFFFF" d="M59.245,56.905c0,1.246-1.011,2.254-2.256,2.254H30.136c-1.246,0-2.256-1.008-2.256-2.254
		l0,0c0-1.248,1.01-2.257,2.256-2.257h26.854C58.234,54.648,59.245,55.657,59.245,56.905"/>
	<path display="inline" fill="#FFFFFF" d="M41.414,69.227c0,1.245-1.009,2.257-2.255,2.257h-9.023c-1.246,0-2.256-1.012-2.256-2.257
		l0,0c0-1.245,1.01-2.254,2.256-2.254h9.023C40.405,66.973,41.414,67.981,41.414,69.227L41.414,69.227L41.414,69.227z"/>
</g>
</svg>
