<?xml version="1.0" encoding="utf-8"?>
<!-- Generator: Adobe Illustrator 16.0.0, SVG Export Plug-In . SVG Version: 6.00 Build 0)  -->
<!DOCTYPE svg PUBLIC "-//W3C//DTD SVG 1.1//EN" "http://www.w3.org/Graphics/SVG/1.1/DTD/svg11.dtd">
<svg version="1.1" xmlns="http://www.w3.org/2000/svg" xmlns:xlink="http://www.w3.org/1999/xlink" x="0px" y="0px" width="30px"
	 height="30px" viewBox="0 0 30 30" enable-background="new 0 0 30 30" xml:space="preserve">
<g id="图层_2_1_" display="none">
	<path display="inline" fill="#898989" d="M15.533,16.259c-0.846,0-1.503,0.688-1.503,1.535c0,0.563,0.313,1.063,0.751,1.314v2.504
		c0,0.407,0.345,0.752,0.752,0.752c0.406,0,0.751-0.345,0.751-0.752v-2.504c0.439-0.251,0.751-0.752,0.751-1.314
		C17.035,16.947,16.378,16.259,15.533,16.259L15.533,16.259z"/>
	<path display="inline" fill="#898989" d="M22.294,11.689h-0.751v-2.91c0-3.507-2.505-6.229-6.041-6.229
		c-3.569,0-5.979,2.785-5.979,6.229v2.91H8.771c-1.659,0-3.005,1.378-3.005,3.067v9.141c0,1.69,1.346,3.067,3.005,3.067h13.522
		c1.659,0,3.005-1.377,3.005-3.067v-9.141C25.299,13.067,23.953,11.689,22.294,11.689z M11.025,8.779
		c0-2.598,1.753-4.727,4.477-4.727c2.691,0,4.538,2.065,4.538,4.727v2.91h-9.015V8.779z M23.797,23.897
		c0,0.845-0.688,1.534-1.503,1.534H8.771c-0.814,0-1.502-0.689-1.502-1.534v-9.141c0-0.844,0.688-1.533,1.502-1.533h13.522
		c0.814,0,1.503,0.688,1.503,1.533V23.897L23.797,23.897z"/>
</g>
<g id="图层_2_x5F_复制" display="none">
	<path display="inline" fill="#898989" d="M22.294,11.689h-0.751v-2.91c0-3.507-2.505-6.229-6.041-6.229
		c-3.569,0-5.979,2.785-5.979,6.229v2.91H8.771c-1.659,0-3.005,1.378-3.005,3.067v9.141c0,1.69,1.346,3.067,3.005,3.067h13.522
		c1.659,0,3.005-1.377,3.005-3.067v-9.141C25.299,13.067,23.953,11.689,22.294,11.689z M11.025,8.779
		c0-2.598,1.753-4.727,4.477-4.727c2.691,0,4.538,2.065,4.538,4.727v2.91h-9.015V8.779z M23.797,23.897
		c0,0.845-0.688,1.534-1.503,1.534H8.771c-0.814,0-1.502-0.689-1.502-1.534v-9.141c0-0.844,0.688-1.533,1.502-1.533h13.522
		c0.814,0,1.503,0.688,1.503,1.533V23.897L23.797,23.897z"/>
	<path display="inline" fill="#898989" d="M15.14,22.348c-1.765-0.003-2.746-1.058-2.746-2.762c0-1.309,0.45-2.018,1.569-2.467
		v1.305c0,0,0,0.395,0.393,0.395c0.394,0,0.394-0.395,0.394-0.395v-2.352h-2.355c0,0-0.393,0-0.393,0.394s0.393,0.394,0.393,0.394
		h0.49c-0.969,0.732-1.273,1.427-1.273,2.712c0,1.945,1.542,3.561,3.529,3.562c0.122,0,0.394-0.011,0.394-0.392
		c0-0.402-0.275-0.394-0.397-0.394H15.14z M15.927,16.856c1.764,0.003,2.744,1.058,2.744,2.762c0,1.309-0.448,2.018-1.567,2.468
		V20.78c0,0,0-0.394-0.394-0.394c-0.393,0-0.393,0.394-0.393,0.394v2.352h2.352c0,0,0.395,0,0.395-0.394s-0.395-0.394-0.395-0.394
		h-0.488c0.969-0.731,1.273-1.427,1.273-2.712c0-1.946-1.543-3.561-3.531-3.563c-0.121,0-0.393,0.012-0.393,0.393
		c0,0.403,0.276,0.394,0.398,0.394H15.927z"/>
</g>
<g id="图层_5">
	<path fill="#898989" d="M26.874,25.377h-0.915V12.245c0-0.905-0.737-1.642-1.643-1.642h-6.513V5.044
		c0-0.906-0.735-1.642-1.641-1.642H5.52c-0.905,0-1.641,0.736-1.641,1.642v20.333H3.068c-0.439,0-0.794,0.354-0.794,0.794
		s0.355,0.794,0.794,0.794H26.88c0.439,0,0.794-0.354,0.794-0.794C27.668,25.736,27.313,25.377,26.874,25.377z M24.316,12.192
		c0.027,0,0.055,0.027,0.055,0.053v13.132h-6.567V12.192H24.316z M5.467,5.044c0-0.027,0.026-0.053,0.053-0.053h10.643
		c0.025,0,0.053,0.026,0.053,0.053v20.333H5.467V5.044z"/>
	<path fill="#898989" d="M10.259,7.771H7.823c-0.291,0-0.529,0.239-0.529,0.529c0,0.292,0.238,0.529,0.529,0.529h2.436
		c0.291,0,0.529-0.238,0.529-0.529C10.789,8.01,10.55,7.771,10.259,7.771z M14.283,7.771h-2.436c-0.292,0-0.53,0.239-0.53,0.529
		c0,0.292,0.238,0.529,0.53,0.529h2.436c0.291,0,0.529-0.238,0.529-0.529C14.813,8.01,14.574,7.771,14.283,7.771z M10.259,11.292
		H7.823c-0.291,0-0.529,0.238-0.529,0.529c0,0.291,0.238,0.529,0.529,0.529h2.436c0.291,0,0.529-0.239,0.529-0.529
		C10.789,11.53,10.55,11.292,10.259,11.292z M14.283,11.292h-2.436c-0.292,0-0.53,0.238-0.53,0.529c0,0.291,0.238,0.529,0.53,0.529
		h2.436c0.291,0,0.529-0.239,0.529-0.529C14.813,11.53,14.574,11.292,14.283,11.292z M10.259,14.76H7.823
		c-0.291,0-0.529,0.239-0.529,0.529c0,0.292,0.238,0.529,0.529,0.529h2.436c0.291,0,0.529-0.237,0.529-0.529
		C10.789,14.999,10.55,14.76,10.259,14.76L10.259,14.76z M14.283,14.76h-2.436c-0.292,0-0.53,0.239-0.53,0.529
		c0,0.292,0.238,0.529,0.53,0.529h2.436c0.291,0,0.529-0.237,0.529-0.529C14.813,14.999,14.574,14.76,14.283,14.76L14.283,14.76z
		 M10.259,18.229H7.823c-0.291,0-0.529,0.238-0.529,0.529s0.238,0.529,0.529,0.529h2.436c0.291,0,0.529-0.238,0.529-0.529
		S10.55,18.229,10.259,18.229z M14.283,18.229h-2.436c-0.292,0-0.53,0.238-0.53,0.529s0.238,0.529,0.53,0.529h2.436
		c0.291,0,0.529-0.238,0.529-0.529S14.574,18.229,14.283,18.229z M19.552,15.846h2.436c0.291,0,0.529-0.238,0.529-0.529
		c0-0.292-0.238-0.529-0.529-0.529h-2.436c-0.291,0-0.529,0.238-0.529,0.529C19.022,15.607,19.261,15.846,19.552,15.846z
		 M21.987,18.229h-2.436c-0.291,0-0.529,0.238-0.529,0.529s0.238,0.529,0.529,0.529h2.436c0.291,0,0.529-0.238,0.529-0.529
		S22.278,18.229,21.987,18.229z"/>
</g>
<g id="图层_4" display="none">
	<path display="inline" fill="#898989" d="M14.934,13.445c-1.831,0-3.321-1.506-3.321-3.359c0-1.851,1.49-3.354,3.321-3.354
		c1.832,0,3.323,1.504,3.323,3.354C18.257,11.938,16.766,13.445,14.934,13.445z M14.934,7.653c-1.328,0-2.409,1.093-2.409,2.433
		c0,1.341,1.081,2.438,2.409,2.438c1.329,0,2.409-1.093,2.409-2.438C17.343,8.746,16.263,7.653,14.934,7.653z"/>
	<path display="inline" fill="#898989" d="M14.921,25.19l-0.346-0.412c-0.3-0.362-7.389-8.874-7.389-14.431
		c0-4.461,3.477-8.089,7.747-8.089c4.255,0,7.732,3.628,7.751,8.089c0.023,5.561-7.112,14.076-7.417,14.434L14.921,25.19z
		 M14.934,3.178c-3.771,0-6.835,3.215-6.835,7.165c0,4.552,5.388,11.61,6.825,13.408c1.441-1.798,6.869-8.856,6.85-13.408
		C21.756,6.393,18.688,3.178,14.934,3.178z"/>
	<path display="inline" fill="#898989" d="M20.239,19.004v1.047h2.064l1.824,7.095H5.868l1.828-7.095h1.257v-1.047H6.781L4.5,28.193
		h21l-2.285-9.189H20.239z"/>
</g>
</svg>
