<?xml version="1.0" encoding="utf-8"?>
<!-- Generator: Adobe Illustrator 16.0.0, SVG Export Plug-In . SVG Version: 6.00 Build 0)  -->
<!DOCTYPE svg PUBLIC "-//W3C//DTD SVG 1.1//EN" "http://www.w3.org/Graphics/SVG/1.1/DTD/svg11.dtd">
<svg version="1.1" id="图层_1" xmlns="http://www.w3.org/2000/svg" xmlns:xlink="http://www.w3.org/1999/xlink" x="0px" y="0px"
	 width="60px" height="60px" viewBox="0 0 60 60" enable-background="new 0 0 60 60" xml:space="preserve">
<g id="图层_1_1_" display="none">
	<g display="inline">
		<path fill="#F7C462" d="M30,2.056c-15.997,0-28.975,12.979-28.975,28.975c0,5.92,1.765,11.588,5.164,16.508
			c0.634,0.879,1.765,1.008,2.644,0.504c0.879-0.627,1.008-1.766,0.504-2.645C6.313,41.113,4.8,36.202,4.8,31.037
			c0-13.857,11.337-25.2,25.194-25.2c13.863,0,25.199,11.336,25.199,25.194c0,13.857-11.336,25.195-25.193,25.195
			c-5.165,0-10.076-1.514-14.362-4.539c-0.879-0.627-2.016-0.381-2.643,0.504c-0.627,0.888-0.381,2.019,0.504,2.646
			C18.411,58.242,24.079,60,30,60c15.997,0,28.975-12.979,28.975-28.977C58.975,15.035,45.996,2.056,30,2.056"/>
		<path fill="#F7C462" d="M26.845,45.27c0,0.821,0.336,1.644,0.924,2.23c0.582,0.582,1.402,0.924,2.23,0.924
			c0.821,0,1.642-0.342,2.229-0.924c0.582-0.582,0.924-1.402,0.924-2.23c0-0.826-0.336-1.641-0.924-2.229
			c-0.582-0.582-1.402-0.925-2.229-0.925c-0.821,0-1.642,0.343-2.23,0.925C27.182,43.621,26.845,44.441,26.845,45.27 M41.213,24.858
			c0-6.172-5.041-11.213-11.213-11.213c-6.173,0-11.214,5.041-11.214,11.213c0,1.383,1.131,2.521,2.521,2.521
			c1.383,0,2.521-1.131,2.521-2.521c0-3.399,2.773-6.172,6.173-6.172c3.407,0,6.172,2.773,6.172,6.172
			c0,3.406-2.772,6.173-6.172,6.173c-1.383,0-2.521,1.131-2.521,2.521v3.529c0,1.384,1.131,2.521,2.521,2.521
			c1.383,0,2.521-1.131,2.521-2.521V35.82C37.555,34.689,41.213,30.152,41.213,24.858"/>
	</g>
</g>
<g id="图层_2">
	<g>
		<g>
			<path fill="#00E5B9" d="M54.736,56.281c-0.454-5.311-1.735-10.262-3.805-14.705l-1.179-2.364
				c-1.581-2.841-3.446-5.294-5.543-7.303c-0.224-0.244-0.544-0.394-0.899-0.394c-0.67,0-1.215,0.543-1.215,1.215
				c0,0.354,0.145,0.672,0.383,0.894c2.221,2.12,4.15,4.801,5.754,7.979c0.444,0.877,0.861,1.797,1.232,2.726
				c1.415,3.519,2.348,7.28,2.758,11.182l0.051,0.472L8.251,55.82l0.05-0.467c1.265-11.563,6.792-21.196,14.422-25.138l0.194-0.1
				l0.194,0.105c1.215,0.638,2.536,1.126,3.923,1.448l0.261,0.062l0.055,0.268c0.006,0.038,0.017,0.076,0.022,0.116
				c0.028,0.144,0.056,0.271,0.111,0.354l1.188,1.632l-2.564,13.303c-0.072,0.388,0.05,0.787,0.322,1.07l2.947,3.023
				c0.227,0.238,0.543,0.371,0.876,0.371c0.34,0,0.655-0.133,0.883-0.371l2.941-3.02c0.277-0.289,0.395-0.688,0.322-1.07
				l-2.57-13.313l1.188-1.638c0.045-0.061,0.066-0.16,0.09-0.282c0.011-0.051,0.021-0.104,0.033-0.155l0.062-0.262l0.26-0.055
				c3.386-0.717,6.466-2.586,8.681-5.255c2.241-2.708,3.473-6.127,3.473-9.628C45.625,8.417,38.734,1.586,30.26,1.586
				c-8.468,0-15.36,6.831-15.36,15.227c0,4.334,1.937,8.501,5.316,11.426l0.433,0.378l-0.489,0.305
				c-3.901,2.438-7.297,6.26-9.822,11.061C7.741,44.92,6.137,50.787,5.693,56.941c-0.022,0.326,0.094,0.658,0.322,0.904
				c0.227,0.242,0.555,0.387,0.894,0.394l46.741,0.172c0.115,0,0.394,0,0.73-0.282C54.561,57.991,54.727,57.107,54.736,56.281
				L54.736,56.281z M31.887,47.242l-1.627,1.665l-1.625-1.665l1.215-6.254h0.833L31.887,47.242z M17.353,16.815
				c0-7.059,5.793-12.807,12.913-12.807c7.119,0,12.914,5.743,12.914,12.807c-0.006,5.36-3.453,10.188-8.58,12.02
				c-0.633,0.228-1.209,0.422-1.842,0.544c-0.865,0.167-1.682,0.25-2.492,0.25c-0.799,0-1.643-0.083-2.514-0.25
				c-1.748-0.344-3.402-1.055-4.911-2.114C19.4,24.845,17.353,20.944,17.353,16.815L17.353,16.815z"/>
		</g>
	</g>
</g>
</svg>
