<?xml version="1.0" encoding="utf-8"?>
<!-- Generator: Adobe Illustrator 16.0.0, SVG Export Plug-In . SVG Version: 6.00 Build 0)  -->
<!DOCTYPE svg PUBLIC "-//W3C//DTD SVG 1.1//EN" "http://www.w3.org/Graphics/SVG/1.1/DTD/svg11.dtd">
<svg version="1.1" id="图层_1" xmlns="http://www.w3.org/2000/svg" xmlns:xlink="http://www.w3.org/1999/xlink" x="0px" y="0px"
	 width="60px" height="60px" viewBox="0 0 60 60" enable-background="new 0 0 60 60" xml:space="preserve">
<g id="图层_1_1_" display="none">
	<g display="inline">
		<path fill="#F7C462" d="M30,2.056c-15.997,0-28.975,12.979-28.975,28.975c0,5.92,1.765,11.588,5.164,16.508
			c0.634,0.879,1.765,1.008,2.644,0.504c0.879-0.627,1.008-1.766,0.504-2.645C6.313,41.113,4.8,36.202,4.8,31.037
			c0-13.857,11.337-25.2,25.194-25.2c13.863,0,25.199,11.336,25.199,25.194c0,13.857-11.336,25.195-25.193,25.195
			c-5.165,0-10.076-1.514-14.362-4.539c-0.879-0.627-2.016-0.381-2.643,0.504c-0.627,0.888-0.381,2.019,0.504,2.646
			C18.411,58.242,24.079,60,30,60c15.997,0,28.975-12.979,28.975-28.977C58.975,15.035,45.996,2.056,30,2.056"/>
		<path fill="#F7C462" d="M26.845,45.27c0,0.821,0.336,1.644,0.924,2.23c0.582,0.582,1.402,0.924,2.23,0.924
			c0.821,0,1.642-0.342,2.229-0.924c0.582-0.582,0.924-1.402,0.924-2.23c0-0.826-0.336-1.641-0.924-2.229
			c-0.582-0.582-1.402-0.925-2.229-0.925c-0.821,0-1.642,0.343-2.23,0.925C27.182,43.621,26.845,44.441,26.845,45.27 M41.213,24.858
			c0-6.172-5.041-11.213-11.213-11.213c-6.173,0-11.214,5.041-11.214,11.213c0,1.383,1.131,2.521,2.521,2.521
			c1.383,0,2.521-1.131,2.521-2.521c0-3.399,2.773-6.172,6.173-6.172c3.407,0,6.172,2.773,6.172,6.172
			c0,3.406-2.772,6.173-6.172,6.173c-1.383,0-2.521,1.131-2.521,2.521v3.529c0,1.384,1.131,2.521,2.521,2.521
			c1.383,0,2.521-1.131,2.521-2.521V35.82C37.555,34.689,41.213,30.152,41.213,24.858"/>
	</g>
</g>
<g id="图层_2" display="none">
	<g display="inline">
		<g>
			<path fill="#2EA28B" d="M54.736,56.281c-0.454-5.311-1.735-10.262-3.805-14.705l-1.179-2.364
				c-1.581-2.841-3.446-5.294-5.543-7.303c-0.224-0.244-0.544-0.394-0.899-0.394c-0.67,0-1.215,0.543-1.215,1.215
				c0,0.354,0.145,0.672,0.383,0.894c2.221,2.12,4.15,4.801,5.754,7.979c0.444,0.877,0.861,1.797,1.232,2.726
				c1.415,3.519,2.348,7.28,2.758,11.182l0.051,0.472L8.251,55.82l0.05-0.467c1.265-11.563,6.792-21.196,14.422-25.138l0.194-0.1
				l0.194,0.105c1.215,0.638,2.536,1.126,3.923,1.448l0.261,0.062l0.055,0.268c0.006,0.038,0.017,0.076,0.022,0.116
				c0.028,0.144,0.056,0.271,0.111,0.354l1.188,1.632l-2.564,13.303c-0.072,0.388,0.05,0.787,0.322,1.07l2.947,3.023
				c0.227,0.238,0.543,0.371,0.876,0.371c0.34,0,0.655-0.133,0.883-0.371l2.941-3.02c0.277-0.289,0.395-0.688,0.322-1.07
				l-2.57-13.313l1.188-1.638c0.045-0.061,0.066-0.16,0.09-0.282c0.011-0.051,0.021-0.104,0.033-0.155l0.062-0.262l0.26-0.055
				c3.386-0.717,6.466-2.586,8.681-5.255c2.241-2.708,3.473-6.127,3.473-9.628C45.625,8.417,38.734,1.586,30.26,1.586
				c-8.468,0-15.36,6.831-15.36,15.227c0,4.334,1.937,8.501,5.316,11.426l0.433,0.378l-0.489,0.305
				c-3.901,2.438-7.297,6.26-9.822,11.061C7.741,44.92,6.137,50.787,5.693,56.941c-0.022,0.326,0.094,0.658,0.322,0.904
				c0.227,0.242,0.555,0.387,0.894,0.394l46.741,0.172c0.115,0,0.394,0,0.73-0.282C54.561,57.991,54.727,57.107,54.736,56.281
				L54.736,56.281z M31.887,47.242l-1.627,1.665l-1.625-1.665l1.215-6.254h0.833L31.887,47.242z M17.353,16.815
				c0-7.059,5.793-12.807,12.913-12.807c7.119,0,12.914,5.743,12.914,12.807c-0.006,5.36-3.453,10.188-8.58,12.02
				c-0.633,0.228-1.209,0.422-1.842,0.544c-0.865,0.167-1.682,0.25-2.492,0.25c-0.799,0-1.643-0.083-2.514-0.25
				c-1.748-0.344-3.402-1.055-4.911-2.114C19.4,24.845,17.353,20.944,17.353,16.815L17.353,16.815z"/>
		</g>
	</g>
</g>
<g id="图层_3">
	<g>
		<g>
			<g>
				<defs>
					<rect id="SVGID_1_" x="1.666" y="1" width="57.334" height="57.029"/>
				</defs>
				<clipPath id="SVGID_2_">
					<use xlink:href="#SVGID_1_"  overflow="visible"/>
				</clipPath>
				<path clip-path="url(#SVGID_2_)" fill="#FED11E" d="M7.817,43.73c-0.126-0.121-0.576-0.105-0.91,0.188l-2.965,2.607
					c-0.247,0.217-0.256,0.328-0.232,0.352l9.355,8.967c0.127,0.121,0.577,0.106,0.911-0.188l2.964-2.605
					c0.248-0.218,0.257-0.33,0.233-0.353L7.817,43.73z M9.236,42.251l9.356,8.968c0.935,0.896,0.813,2.396-0.298,3.37l-2.964,2.606
					c-1.098,0.966-2.748,1.021-3.681,0.128l-9.356-8.968C1.358,47.46,1.48,45.96,2.591,44.984l2.964-2.605
					C6.653,41.414,8.303,41.357,9.236,42.251L9.236,42.251z M12.668,41.525l7.014-4.448c0.115-0.069,0.388-0.207,0.755-0.349
					c0.605-0.233,1.227-0.373,1.812-0.373c0.67,0,4.255,0.154,9.722,0.414l0.686,0.031c2.121,0.102,4.244,0.202,6.367,0.307
					l2.063,0.102l0.775,0.039l-0.217-0.034c0.146,0.04,0.401,0.132,0.645,0.263c0.212,0.115,0.334,0.224,0.344,0.244
					c-0.029-0.072-0.018-0.113-0.175,0.039c-0.374,0.362-2.487,0.764-5.392,0.986c-1.342,0.104-2.779,0.169-4.221,0.206
					c-0.506,0.014-0.973,0.022-1.393,0.026c-0.252,0.004-0.43,0.004-0.523,0.004l-0.219,0.023c-0.251,0.055-0.588,0.16-0.941,0.331
					c-0.644,0.313-1.113,0.738-1.256,1.402c-0.18,0.834,0.275,1.583,1.191,2.253c1.07,0.783,3.227,1.105,6.35,1.178
					c1.53,0.036,3.163,0.004,4.764-0.072c0.365-0.018,0.729-0.037,1.096-0.061c0.197-0.014,0.338-0.021,0.414-0.028
					c0.25-0.021,0.498-0.051,0.747-0.086c0.546-0.077,1.095-0.181,1.612-0.315c1.017-0.267,1.807-0.616,2.328-1.141
					c0.326-0.326,1.477-1.195,3.117-2.367l0.235-0.168c1.093-0.774,2.19-1.543,3.296-2.302l0.309-0.211l-0.273,0.133
					c0.311-0.094,0.624-0.178,0.939-0.25c0.284-0.065,0.572-0.122,0.861-0.17c0.582-0.09,1.021-0.075,0.996-0.097
					c0.102,0.076,0.422,0.308,0.468,0.345c-0.032-0.026-0.135-0.237-0.069-0.45c-0.021,0.066-0.25,0.354-0.744,0.813
					c-0.629,0.587-2.818,2.286-6.023,4.696l-0.221,0.164c-1.982,1.487-3.971,2.967-5.967,4.438l-0.562,0.414l0.159-0.098
					c-0.059,0.027-0.176,0.082-0.34,0.152c-0.303,0.129-0.609,0.246-0.92,0.354c-0.611,0.21-1.207,0.364-1.752,0.442
					c-0.533,0.076-0.986,0.072-1.33-0.013c-0.861-0.212-2.672-0.331-5.25-0.392c-1.7-0.039-3.491-0.049-5.063-0.039
					c-0.134,0.001-0.268,0.001-0.401,0.003c0.001-0.003-0.127-0.009-0.299-0.017c-0.603-0.024-1.206-0.023-1.809,0.004
					c-1.162,0.06-1.966,0.215-2.492,0.633c-0.118,0.095-0.377,0.244-0.73,0.418c-0.201,0.099-0.403,0.193-0.608,0.283
					c-0.389,0.172-0.781,0.336-1.177,0.492c-0.242,0.094,0.104-0.039,0,0h0.079L12.668,41.525l-1.111,0.701L12.668,41.525z
					 M10.46,40.495c-0.269,0.171-0.443,0.455-0.472,0.771c-0.029,0.316,0.089,0.629,0.321,0.846l10.182,9.484
					c0.283,0.266,0.691,0.348,1.054,0.213c0.192-0.072,0.383-0.146,0.574-0.222c0.422-0.166,0.84-0.341,1.256-0.524
					c0.229-0.101,0.457-0.207,0.682-0.316c0.475-0.234,0.84-0.445,1.101-0.653c0.061-0.049,0.604-0.153,1.32-0.188
					c0.541-0.025,1.083-0.026,1.624-0.004c0.154,0.008,0.265,0.012,0.324,0.017c0.145,0.002,0.279,0.001,0.467-0.001
					c1.555-0.008,3.328,0,5.005,0.039c2.401,0.057,4.152,0.171,4.81,0.332c0.63,0.154,1.335,0.161,2.108,0.051
					c0.688-0.098,1.401-0.283,2.127-0.533c0.647-0.224,1.17-0.445,1.49-0.602l0.157-0.096c0.188-0.14,0.376-0.275,0.563-0.416
					c0.447-0.328,0.945-0.696,1.482-1.096c1.504-1.111,3.004-2.229,4.5-3.353l0.219-0.166c3.295-2.476,5.483-4.175,6.19-4.834
					c1.541-1.438,1.866-2.517,0.709-3.454c-0.104-0.086-0.454-0.335-0.507-0.375c-0.596-0.461-1.411-0.484-2.564-0.307
					c-0.34,0.054-0.677,0.119-1.011,0.197c-0.257,0.063-0.512,0.127-0.766,0.196c-0.106,0.03-0.212,0.062-0.316,0.093
					c-0.098,0.03-0.19,0.074-0.274,0.133c-0.058,0.039-0.164,0.112-0.313,0.215c-1.114,0.765-2.224,1.539-3.323,2.32l-0.236,0.17
					c-1.768,1.26-2.934,2.143-3.377,2.588c-0.2,0.198-0.707,0.426-1.396,0.604c-0.436,0.112-0.906,0.202-1.38,0.271
					c-0.206,0.028-0.412,0.054-0.62,0.071c-0.063,0.005-0.195,0.015-0.385,0.025c-0.316,0.02-0.674,0.038-1.064,0.058
					c-1.555,0.075-3.143,0.105-4.617,0.072c-2.66-0.063-4.597-0.352-5.188-0.783c-0.226-0.165-0.356-0.296-0.403-0.378
					c0.012,0.022,0.028,0.106,0.008,0.21c-0.023,0.109,0.016,0.074,0.146,0.01c0.155-0.074,0.317-0.133,0.487-0.173l-0.221,0.024
					c0.102,0,0.287-0.002,0.545-0.006c0.476-0.004,0.948-0.014,1.424-0.025c1.472-0.038,2.945-0.105,4.322-0.212
					c3.545-0.271,5.772-0.694,6.664-1.562c0.713-0.692,0.963-1.514,0.637-2.295c-0.228-0.55-0.674-0.943-1.26-1.261
					c-0.344-0.187-0.705-0.332-1.082-0.438L41.964,35.2l-0.776-0.039c-2.813-0.14-5.623-0.275-8.435-0.408l-0.685-0.033
					c-5.551-0.261-9.097-0.413-9.819-0.413c-0.867,0-1.726,0.189-2.549,0.508c-0.489,0.188-0.867,0.381-1.097,0.52L10.46,40.495z"/>
			</g>
			<g>
				<defs>
					<rect id="SVGID_3_" x="1.666" y="1" width="57.334" height="57.029"/>
				</defs>
				<clipPath id="SVGID_4_">
					<use xlink:href="#SVGID_3_"  overflow="visible"/>
				</clipPath>
				<path clip-path="url(#SVGID_4_)" fill="#FED11E" d="M11.294,27.479c0.133,0.734,0.844,1.243,1.601,1.109
					c0.735-0.132,1.243-0.843,1.11-1.601c-0.046-0.242-0.069-0.514-0.109-0.756c-0.757-5.358,0.665-10.653,4.005-14.901
					c6.693-8.56,19.103-10.051,27.646-3.358c8.006,6.294,9.941,17.478,4.469,26.067c-0.423,0.646-0.221,1.492,0.422,1.913
					c0.22,0.155,0.49,0.22,0.732,0.22c0.469,0,0.914-0.22,1.18-0.646c6.25-9.785,4.047-22.577-5.092-29.737
					C37.52-1.837,23.375-0.12,15.722,9.619c-3.804,4.849-5.428,10.895-4.561,17.017C11.208,26.925,11.254,27.19,11.294,27.479
					L11.294,27.479z"/>
			</g>
		</g>
		<path fill="#FED11E" d="M32.854,18.781c-0.502,0.001-0.983-0.198-1.338-0.554l-5.184-5.183c-0.739-0.739-0.739-1.937,0-2.675
			c0.737-0.739,1.936-0.739,2.675,0l5.185,5.183c0.738,0.739,0.738,1.938,0,2.675C33.82,18.597,33.337,18.781,32.854,18.781
			L32.854,18.781z"/>
		<path fill="#FED11E" d="M33.977,18.781c-0.502,0.001-0.982-0.198-1.338-0.554c-0.738-0.738-0.738-1.936,0-2.675l5.182-5.184
			c0.738-0.739,1.938-0.738,2.676,0c0.738,0.738,0.738,1.936,0,2.675l-5.184,5.184C34.943,18.597,34.46,18.781,33.977,18.781
			L33.977,18.781z"/>
		<path fill="#FED11E" d="M40.172,21.234H26.657c-1.045,0-1.892-0.847-1.892-1.892c0-1.045,0.847-1.892,1.892-1.892h13.515
			c1.045,0,1.893,0.847,1.893,1.892C42.063,20.387,41.217,21.234,40.172,21.234L40.172,21.234z M40.172,27.54H26.657
			c-1.045,0-1.892-0.847-1.892-1.892s0.847-1.892,1.892-1.892h13.515c1.045,0,1.893,0.847,1.893,1.892S41.217,27.54,40.172,27.54
			L40.172,27.54z"/>
		<path fill="#FED11E" d="M33.414,32.792c-1.045,0-1.893-0.847-1.893-1.892V19.52c0-1.045,0.848-1.892,1.893-1.892
			s1.893,0.847,1.893,1.892V30.9C35.307,31.945,34.459,32.792,33.414,32.792L33.414,32.792z"/>
	</g>
</g>
</svg>
