<?xml version="1.0" encoding="utf-8"?>
<!-- Generator: Adobe Illustrator 16.0.0, SVG Export Plug-In . SVG Version: 6.00 Build 0)  -->
<!DOCTYPE svg PUBLIC "-//W3C//DTD SVG 1.1//EN" "http://www.w3.org/Graphics/SVG/1.1/DTD/svg11.dtd">
<svg version="1.1" id="图层_1" xmlns="http://www.w3.org/2000/svg" xmlns:xlink="http://www.w3.org/1999/xlink" x="0px" y="0px"
	 width="60px" height="60px" viewBox="0 0 60 60" enable-background="new 0 0 60 60" xml:space="preserve">
<g>
	<path fill="#F90012" d="M30,2.056c-15.997,0-28.975,12.979-28.975,28.975c0,5.92,1.765,11.588,5.164,16.508
		c0.634,0.879,1.765,1.008,2.644,0.504c0.879-0.627,1.008-1.766,0.504-2.645C6.313,41.113,4.8,36.202,4.8,31.037
		c0-13.857,11.337-25.2,25.194-25.2c13.863,0,25.199,11.336,25.199,25.194c0,13.857-11.336,25.195-25.193,25.195
		c-5.165,0-10.076-1.514-14.362-4.539c-0.879-0.627-2.016-0.381-2.643,0.504c-0.627,0.888-0.381,2.019,0.504,2.646
		C18.411,58.242,24.079,60,30,60c15.997,0,28.975-12.979,28.975-28.977C58.975,15.035,45.996,2.056,30,2.056"/>
	<path fill="#F90012" d="M26.845,45.27c0,0.821,0.336,1.644,0.924,2.23c0.582,0.582,1.402,0.924,2.23,0.924
		c0.821,0,1.642-0.342,2.229-0.924c0.582-0.582,0.924-1.402,0.924-2.23c0-0.826-0.336-1.641-0.924-2.229
		c-0.582-0.582-1.402-0.925-2.229-0.925c-0.821,0-1.642,0.343-2.23,0.925C27.182,43.621,26.845,44.441,26.845,45.27 M41.213,24.858
		c0-6.172-5.041-11.213-11.213-11.213c-6.173,0-11.214,5.041-11.214,11.213c0,1.383,1.131,2.521,2.521,2.521
		c1.383,0,2.521-1.131,2.521-2.521c0-3.399,2.773-6.172,6.173-6.172c3.407,0,6.172,2.773,6.172,6.172
		c0,3.406-2.772,6.173-6.172,6.173c-1.383,0-2.521,1.131-2.521,2.521v3.529c0,1.384,1.131,2.521,2.521,2.521
		c1.383,0,2.521-1.131,2.521-2.521V35.82C37.555,34.689,41.213,30.152,41.213,24.858"/>
</g>
</svg>
