<?xml version="1.0" encoding="utf-8"?>
<!-- Generator: Adobe Illustrator 16.0.0, SVG Export Plug-In . SVG Version: 6.00 Build 0)  -->
<!DOCTYPE svg PUBLIC "-//W3C//DTD SVG 1.1//EN" "http://www.w3.org/Graphics/SVG/1.1/DTD/svg11.dtd">
<svg version="1.1" id="图层_2" xmlns="http://www.w3.org/2000/svg" xmlns:xlink="http://www.w3.org/1999/xlink" x="0px" y="0px"
	 width="100px" height="28.997px" viewBox="0 0 100 28.997" enable-background="new 0 0 100 28.997" xml:space="preserve">
<g>
	<path fill="#FF6253" d="M12.917,5.065l-0.33,0.476c1.965,3.076,4.754,5.298,8.368,6.665c-0.391,0.574-0.727,1.104-1.007,1.593
		c-3.711-1.819-6.452-4.168-8.221-7.049c-1.783,2.686-4.584,5.127-8.405,7.324c-0.256-0.427-0.556-0.897-0.897-1.41
		c4.052-2.075,6.927-4.608,8.624-7.599H12.917z M4.677,16.619v-1.465h13.33v1.465c-1.953,2.515-3.668,4.736-5.146,6.665
		l-1.318-1.025c1.477-1.758,2.954-3.638,4.432-5.64H4.677z M9.877,11.162l1.227-0.769c0.781,1.025,1.483,1.996,2.106,2.912
		l-1.318,0.897C11.33,13.237,10.658,12.224,9.877,11.162z"/>
	<path fill="#FF6253" d="M23.939,6.237h13.056v16.626h-1.557v-1.3h-9.942v1.3h-1.557V6.237z M25.496,7.61v5.475h9.942V7.61H25.496z
		 M25.496,14.458v5.768h9.942v-5.768H25.496z"/>
</g>
<polygon fill="#FF6253" points="49.826,0 42.333,8 42.333,28.667 90.667,28.997 97.667,20.333 97.667,0 "/>
<g>
	<path fill="#FFFFFF" d="M51.791,15.044h9.1c0.195-2.466,0.293-5.755,0.293-9.869h1.575c0,3.577-0.092,6.866-0.274,9.869h7.141
		v1.318h-7.397c-0.085,0.403-0.226,0.806-0.421,1.208c2.453,1.233,4.943,2.563,7.471,3.992l-0.934,1.41
		c-2.516-1.575-4.957-2.985-7.324-4.23c-1.465,1.746-4.248,3.235-8.35,4.468c-0.22-0.378-0.55-0.86-0.989-1.446
		c5.212-1.428,8.173-3.229,8.881-5.402h-8.771V15.044z M53.604,9.661c1.733,1.038,3.314,2.057,4.742,3.058l-0.896,1.263
		c-1.404-1.05-2.961-2.118-4.67-3.204L53.604,9.661z M55.435,5.724c1.843,1.123,3.388,2.124,4.633,3.003l-0.916,1.245
		c-1.636-1.233-3.138-2.289-4.504-3.168L55.435,5.724z"/>
	<path fill="#FFFFFF" d="M71.182,10.814c1.978-1.624,3.674-3.559,5.09-5.805h1.667c-0.379,0.61-0.767,1.196-1.163,1.758h8.963v1.3
		c-1.44,1.392-2.951,2.561-4.531,3.506c1.855,0.69,4.312,1.181,7.369,1.474c-0.414,0.574-0.684,1.104-0.805,1.593
		c-3.486-0.598-6.187-1.346-8.104-2.243c-2.178,1.02-5.074,1.908-8.688,2.665c-0.184-0.439-0.403-0.879-0.659-1.318
		c3.381-0.623,6.009-1.328,7.882-2.115c-1.11-0.678-2.157-1.566-3.14-2.665c-0.879,1.025-1.807,1.965-2.783,2.82
		C71.841,11.345,71.475,11.022,71.182,10.814z M75.576,17.443l1.08,1.007c-1.489,1.282-3.125,2.533-4.907,3.754
		c-0.28-0.366-0.592-0.739-0.934-1.117C72.5,20.049,74.087,18.834,75.576,17.443z M72.115,15.465h6.793v-1.813h1.447v1.813h6.354
		v1.3h-6.354v3.845c0,1.428-0.751,2.143-2.252,2.143c-0.66,0-1.429-0.006-2.308-0.019c-0.073-0.5-0.165-1.038-0.274-1.611
		c0.854,0.098,1.568,0.146,2.143,0.146c0.83,0,1.244-0.445,1.244-1.336v-3.168h-6.793V15.465z M83.871,7.995h-7.983
		c1.073,1.153,2.353,2.121,3.836,2.902C81.17,10.109,82.553,9.142,83.871,7.995z M82.076,18.669l0.843-1.043
		c2.014,1.099,3.79,2.148,5.328,3.149l-0.879,1.282C85.903,21.007,84.139,19.878,82.076,18.669z"/>
</g>
</svg>
