<?xml version="1.0" encoding="utf-8"?>
<!-- Generator: Adobe Illustrator 16.0.0, SVG Export Plug-In . SVG Version: 6.00 Build 0)  -->
<!DOCTYPE svg PUBLIC "-//W3C//DTD SVG 1.1//EN" "http://www.w3.org/Graphics/SVG/1.1/DTD/svg11.dtd">
<svg version="1.1" xmlns="http://www.w3.org/2000/svg" xmlns:xlink="http://www.w3.org/1999/xlink" x="0px" y="0px" width="60px"
	 height="60px" viewBox="0 0 60 60" enable-background="new 0 0 60 60" xml:space="preserve">
<g id="图层_1" display="none">
	<path display="inline" fill="#FF7C0B" d="M58.469,10.656l-3.458,5.883h2.729v1.299h-3.171v1.789h3.171v1.329h-3.171v2.609h-1.631
		v-2.609h-3.292v-1.319h3.292v-1.789h-3.292v-1.3h2.813l-3.43-5.883h1.843c1.604,2.923,2.573,4.776,2.913,5.56h0.036
		c0.122-0.321,0.435-0.966,0.96-1.954l1.954-3.605h1.733V10.656L58.469,10.656z"/>
	<path display="inline" fill="#FF7C0B" d="M5.241,14.6h17.004c0,0-0.074,0.281,4.555-3.462H1.5v40.565h57.135V30.452
		c0.083,0.125-0.312,3.552-3.603,3.401v14.524H5.241V14.6z"/>
	<path display="inline" fill="#FFC67D" d="M47.838,11.026c0,0-9.947,3.761-14.097,11.523l-4.766-1.374l3.735,14.513
		c0,0,4.766-6.859,12.068-7.875l-4.988-2.903C39.79,24.912,39.79,19.019,47.838,11.026L47.838,11.026z"/>
</g>
<g id="图层_2" display="none">
	<path display="inline" fill="#B165FC" d="M24.756,19.693l5.337,9.738l5.338-9.738h2.996l-6.086,10.674h4.494v1.498h-5.338v2.902
		h5.338v1.498h-5.338v4.682h-2.622v-4.682h-5.244v-1.498h5.244v-2.902h-5.244v-1.498h4.307l-6.086-10.674H24.756z"/>
	<path display="inline" fill="#E0C1FE" d="M46.854,35.705l7.022,8.053l1.404-8.146L46.854,35.705z"/>
	<polygon display="inline" fill="#E0C1FE" points="30.468,55.648 24.288,48.439 17.078,54.15 15.955,52.652 24.569,45.816 
		30.749,53.121 50.881,37.951 52.005,39.449 	"/>
	<path display="inline" fill="#B165FC" d="M13.426,50.125C7.621,45.256,4.25,38.045,4.25,30.461C4.25,16.228,15.768,4.71,30,4.71
		s25.75,11.518,25.75,25.75h-3.873c0-13.203-8.674-21.877-21.877-21.877c-13.203,0-21.877,8.675-21.877,21.877
		c0,7.021,3.09,12.67,8.521,17.26L13.426,50.125z"/>
</g>
<g id="图层_3" display="none">
	<polygon display="inline" fill="#FF8787" points="23.102,24.149 4,42.96 14.553,44.398 5.579,57.4 25.949,38.881 17.169,37.074 
		23.102,24.149 	"/>
	<path display="inline" fill="#FF4141" d="M30.418,13.552c-1.072,0-1.942,0.876-1.942,1.956v15.646c0,1.079,0.87,1.956,1.942,1.956
		h11.654c1.074,0,1.943-0.876,1.943-1.956c0-1.08-0.869-1.956-1.943-1.956h-9.711v-13.69C32.361,14.428,31.492,13.552,30.418,13.552
		z"/>
	<path display="inline" fill="#FF4141" d="M32.361,5.729c-12.863,0-23.31,10.521-23.31,23.468h3.885
		c0-10.795,8.702-19.557,19.425-19.557c10.722,0,19.426,8.761,19.426,19.557s-8.704,19.556-19.426,19.556
		c-3.278,0-6.366-0.821-9.076-2.266l-2.519,3.066c3.417,1.979,7.375,3.111,11.595,3.111c12.864,0,23.31-10.518,23.31-23.468
		C55.671,16.251,45.226,5.729,32.361,5.729L32.361,5.729z"/>
</g>
<g id="图层_4">
	<path fill="#54B2FC" d="M9.244,50.091h42.642v3.331H9.244V50.091L9.244,50.091L9.244,50.091z"/>
	<path fill="#AED6F2" d="M13.021,26.731h7.83v21.32h-7.83V26.731L13.021,26.731L13.021,26.731z"/>
	<path fill="#AED6F2" d="M24.847,18.902h7.829v29.149h-7.829V18.902L24.847,18.902L24.847,18.902z"/>
	<path fill="#54B2FC" d="M26.406,8.21l2.356,2.357L17.106,22.221l-2.355-2.355L26.406,8.21L26.406,8.21L26.406,8.21z"/>
	<path fill="#54B2FC" d="M42.381,21.351l-2.355,2.356L25.467,9.149l2.356-2.355L42.381,21.351L42.381,21.351L42.381,21.351z"/>
	<path fill="#54B2FC" d="M49.393,30.182h-2.735l-3.074,4.998c-0.82,1.355-1.322,2.255-1.505,2.701h-0.054
		c-0.541-1.084-2.066-3.652-4.579-7.699h-2.893l5.379,8.149h-4.41v1.801h5.169v2.483h-5.169v1.823h5.169v3.612h2.564v-3.612h4.985
		v-1.823h-4.985v-2.483h4.985v-1.801h-4.279L49.393,30.182L49.393,30.182z"/>
	<path fill="#54B2FC" d="M37.191,25.207l7.073-7.073l1.259,8.333l-8.078-1.005L37.191,25.207z"/>
</g>
</svg>
