<?xml version="1.0" encoding="utf-8"?>
<!-- Generator: Adobe Illustrator 16.0.0, SVG Export Plug-In . SVG Version: 6.00 Build 0)  -->
<!DOCTYPE svg PUBLIC "-//W3C//DTD SVG 1.1//EN" "http://www.w3.org/Graphics/SVG/1.1/DTD/svg11.dtd">
<svg version="1.1" xmlns="http://www.w3.org/2000/svg" xmlns:xlink="http://www.w3.org/1999/xlink" x="0px" y="0px" width="30px"
	 height="30px" viewBox="0 0 30 30" enable-background="new 0 0 30 30" xml:space="preserve">
<g id="图层_2_1_">
	<path fill="#898989" d="M15.533,16.259c-0.846,0-1.503,0.688-1.503,1.535c0,0.563,0.313,1.063,0.751,1.314v2.504
		c0,0.407,0.345,0.752,0.752,0.752c0.406,0,0.751-0.345,0.751-0.752v-2.504c0.439-0.251,0.751-0.752,0.751-1.314
		C17.035,16.947,16.378,16.259,15.533,16.259L15.533,16.259z"/>
	<path fill="#898989" d="M22.294,11.689h-0.751v-2.91c0-3.507-2.505-6.229-6.041-6.229c-3.569,0-5.979,2.785-5.979,6.229v2.91H8.771
		c-1.659,0-3.005,1.378-3.005,3.067v9.141c0,1.69,1.346,3.067,3.005,3.067h13.522c1.659,0,3.005-1.377,3.005-3.067v-9.141
		C25.299,13.067,23.953,11.689,22.294,11.689z M11.025,8.779c0-2.598,1.753-4.727,4.477-4.727c2.691,0,4.538,2.065,4.538,4.727v2.91
		h-9.015V8.779z M23.797,23.897c0,0.845-0.688,1.534-1.503,1.534H8.771c-0.814,0-1.502-0.689-1.502-1.534v-9.141
		c0-0.844,0.688-1.533,1.502-1.533h13.522c0.814,0,1.503,0.688,1.503,1.533V23.897L23.797,23.897z"/>
</g>
<g id="图层_3" display="none">
	<path display="inline" fill="#898989" d="M14.738,17.034c0.023,0,0.047,0.003,0.07,0.003c0.023-0.003,0.047-0.003,0.07-0.003
		H14.738z M14.876,22.107c-0.023,0-0.046-0.003-0.07-0.003c-0.023,0.003-0.046,0.003-0.07,0.003H14.876z"/>
	<path display="inline" fill="#898989" d="M23.241,12.754v-1.84c0-4.637-3.452-8.225-7.884-8.225c-4.483,0-7.606,3.743-7.606,8.225
		v1.84H4.694v11.178c0,1.506,1.229,2.723,2.743,2.723h16.127c1.515,0,2.741-1.217,2.741-2.723V12.754H23.241z M9.294,10.915
		c0-3.579,2.488-7.066,6.063-7.066c3.493,0,6.377,3.368,6.377,7.066v1.84H9.294V10.915z M25.084,23.986
		c0,0.595-0.756,1.077-1.36,1.077H6.993c-0.604,0-1.098-0.482-1.098-1.077v-9.83h19.189V23.986z"/>
	<path display="inline" fill="#898989" d="M15.108,22.816c-1.765-0.003-2.746-1.058-2.746-2.762c0-1.309,0.45-2.018,1.569-2.467
		v1.305c0,0,0,0.395,0.393,0.395c0.394,0,0.394-0.395,0.394-0.395v-2.352h-2.355c0,0-0.393,0-0.393,0.394s0.393,0.394,0.393,0.394
		h0.49c-0.969,0.732-1.273,1.427-1.273,2.712c0,1.945,1.542,3.561,3.53,3.562c0.122,0,0.393-0.011,0.393-0.392
		c0-0.402-0.275-0.394-0.398-0.394H15.108z M15.895,17.325c1.764,0.003,2.744,1.058,2.744,2.762c0,1.309-0.448,2.018-1.567,2.468
		v-1.306c0,0,0-0.394-0.394-0.394c-0.393,0-0.393,0.394-0.393,0.394v2.352h2.352c0,0,0.395,0,0.395-0.394s-0.395-0.394-0.395-0.394
		h-0.488c0.969-0.731,1.273-1.427,1.273-2.712c0-1.946-1.543-3.561-3.531-3.563c-0.121,0-0.393,0.012-0.393,0.393
		c0,0.403,0.276,0.394,0.398,0.394H15.895z"/>
</g>
<g id="图层_4" display="none">
	<path display="inline" fill="#898989" d="M15.359,12.829c-1.73,0-3.139-1.424-3.139-3.174c0-1.749,1.408-3.169,3.139-3.169
		s3.14,1.421,3.14,3.169C18.499,11.405,17.09,12.829,15.359,12.829z M15.359,7.356c-1.255,0-2.276,1.033-2.276,2.299
		c0,1.268,1.021,2.303,2.276,2.303c1.256,0,2.276-1.032,2.276-2.303C17.636,8.389,16.615,7.356,15.359,7.356z"/>
	<path display="inline" fill="#898989" d="M15.347,23.928l-0.326-0.39c-0.283-0.342-6.982-8.385-6.982-13.636
		c0-4.215,3.285-7.644,7.321-7.644c4.021,0,7.307,3.429,7.324,7.644c0.021,5.254-6.721,13.3-7.009,13.639L15.347,23.928z
		 M15.359,3.127c-3.563,0-6.459,3.039-6.459,6.771c0,4.302,5.092,10.972,6.449,12.67c1.362-1.698,6.491-8.368,6.473-12.67
		C21.806,6.166,18.906,3.127,15.359,3.127z"/>
	<path display="inline" fill="#898989" d="M20.373,18.082v0.989h1.95l1.724,6.704H6.793l1.728-6.704h1.188v-0.989H7.656L5.5,26.766
		h19.844l-2.159-8.684H20.373z"/>
</g>
</svg>
