<?xml version="1.0" encoding="utf-8"?>
<!-- Generator: Adobe Illustrator 16.0.0, SVG Export Plug-In . SVG Version: 6.00 Build 0)  -->
<!DOCTYPE svg PUBLIC "-//W3C//DTD SVG 1.1//EN" "http://www.w3.org/Graphics/SVG/1.1/DTD/svg11.dtd">
<svg version="1.1" xmlns="http://www.w3.org/2000/svg" xmlns:xlink="http://www.w3.org/1999/xlink" x="0px" y="0px" width="30px"
	 height="30px" viewBox="0 0 30 30" enable-background="new 0 0 30 30" xml:space="preserve">
<g id="图层_1">
	<path fill="#8A8A8A" d="M22.166,28.434H7.958c-0.857,0-1.554-0.696-1.554-1.554V2.704c0-0.857,0.697-1.554,1.554-1.554h14.208
		c0.856,0,1.555,0.697,1.555,1.554V26.88C23.721,27.737,23.022,28.434,22.166,28.434z M7.958,1.997c-0.39,0-0.707,0.317-0.707,0.707
		V26.88c0,0.389,0.317,0.706,0.707,0.706h14.208c0.39,0,0.706-0.317,0.706-0.706V2.704c0-0.389-0.316-0.707-0.706-0.707H7.958z"/>
	<path fill="#8A8A8A" d="M6.785,3.718h16.554v0.906H6.785V3.718z M6.785,23.805h16.554v1.045H6.785V23.805z M12.267,2.62h5.591v0.65
		h-5.591V2.62z"/>
	<path fill="#8A8A8A" d="M14.133,26.165c0,0.481,0.39,0.87,0.871,0.87s0.872-0.389,0.872-0.87s-0.39-0.871-0.871-0.871
		C14.523,25.294,14.133,25.683,14.133,26.165L14.133,26.165z"/>
</g>
<g id="图层_2" display="none">
	<path display="inline" fill="#898989" d="M25.822,27.212c-0.335,0-0.604-0.27-0.604-0.601c0-2.572-1.006-4.991-2.832-6.81
		c-0.237-0.234-0.237-0.615-0.001-0.851s0.618-0.235,0.854,0c2.056,2.046,3.188,4.767,3.188,7.66
		C26.427,26.942,26.157,27.212,25.822,27.212z M15.547,16.991c-0.036,0-0.068-0.003-0.102-0.003
		c-2.545,0.026-4.935,1.019-6.737,2.813c-1.827,1.818-2.833,4.237-2.833,6.81c0,0.331-0.271,0.601-0.605,0.601
		c-0.334,0-0.604-0.27-0.604-0.601c0-2.894,1.131-5.614,3.187-7.66c1.279-1.273,2.824-2.19,4.508-2.702
		c-2.405-1.178-4.068-3.635-4.068-6.478c0-3.982,3.253-7.221,7.254-7.221c3.999,0,7.253,3.239,7.253,7.221
		S19.546,16.991,15.547,16.991z M15.547,3.753c-3.333,0-6.045,2.7-6.045,6.018c0,3.285,2.657,5.958,5.943,6.012
		c0.034,0,0.066-0.004,0.101-0.004c0.014,0,0.025,0.007,0.04,0.008c3.316-0.021,6.005-2.711,6.005-6.016
		C21.591,6.454,18.879,3.753,15.547,3.753z"/>
</g>
</svg>
