<?xml version="1.0" encoding="utf-8"?>
<!-- Generator: Adobe Illustrator 16.0.0, SVG Export Plug-In . SVG Version: 6.00 Build 0)  -->
<!DOCTYPE svg PUBLIC "-//W3C//DTD SVG 1.1//EN" "http://www.w3.org/Graphics/SVG/1.1/DTD/svg11.dtd">
<svg version="1.1" id="图层_1" xmlns="http://www.w3.org/2000/svg" xmlns:xlink="http://www.w3.org/1999/xlink" x="0px" y="0px"
	 width="30px" height="30px" viewBox="0 0 30 30" enable-background="new 0 0 30 30" xml:space="preserve">
<path fill="#FFFFFF" d="M1.181,25.755c0,1.565,1.324,2.854,2.94,2.854h18.981c1.616,0,2.94-1.272,2.94-2.854V9.525
	c-0.086-0.396-0.311-0.602-0.671-0.602c-0.378,0-0.585,0.292-0.585,0.584v16.248c0,0.945-0.738,1.686-1.685,1.686H4.138
	c-0.945,0-1.685-0.74-1.685-1.686V6.671c0-0.946,0.74-1.685,1.685-1.685h15.387c0.379,0,0.586-0.292,0.586-0.584
	c0-0.275-0.293-0.585-0.586-0.585H4.138c-1.599,0-2.94,1.307-2.94,2.854v19.084H1.181L1.181,25.755z"/>
<path fill="#FFFFFF" d="M13.87,11.485H5.651c-0.378,0-0.584,0.292-0.584,0.584c0,0.275,0.292,0.584,0.584,0.584h8.219
	c0.378,0,0.584-0.292,0.584-0.584C14.455,11.691,14.145,11.485,13.87,11.485L13.87,11.485z"/>
<path fill="#FFFFFF" d="M28.088,2.458c-0.205-0.206-0.601-0.206-0.894,0.017l-9.628,9.525c-0.104,0.103-0.154,0.241-0.154,0.395
	c0,0.155,0.051,0.292,0.154,0.396c0.207,0.207,0.602,0.207,0.895-0.018l9.627-9.525C28.313,3.043,28.313,2.682,28.088,2.458
	L28.088,2.458z"/>
<path fill="#FFFFFF" d="M19.252,16.764H5.651c-0.275,0-0.584,0.293-0.584,0.584c0,0.292,0.292,0.585,0.584,0.585h13.601
	c0.377,0,0.584-0.293,0.584-0.585C19.836,17.072,19.525,16.764,19.252,16.764L19.252,16.764z"/>
</svg>
