<?xml version="1.0" encoding="utf-8"?>
<!-- Generator: Adobe Illustrator 16.0.0, SVG Export Plug-In . SVG Version: 6.00 Build 0)  -->
<!DOCTYPE svg PUBLIC "-//W3C//DTD SVG 1.1//EN" "http://www.w3.org/Graphics/SVG/1.1/DTD/svg11.dtd">
<svg version="1.1" id="图层_2_1_" xmlns="http://www.w3.org/2000/svg" xmlns:xlink="http://www.w3.org/1999/xlink" x="0px"
	 y="0px" width="100px" height="100px" viewBox="0 0 100 100" enable-background="new 0 0 100 100" xml:space="preserve">
<path fill="#FFFFFF" d="M69.875,89.146H53.91v-72.82l15.965,10.514V89.146z"/>
<path fill="#FFFFFF" d="M32.103,28.268v42.28l-3.375,2.308v-13.89h-1.623V45.121l-13.5,6.307v13.833h-0.714v23.885h38.942v-73.6
	L32.103,28.268z M19.599,82.136l-4.673,2.033v-5.538l4.673-1.904V82.136z M19.599,74.347l-4.673,2.035v-5.539l4.673-1.904V74.347z
	 M19.599,66.04l-4.673,2.033v-5.538l4.673-1.904V66.04z M19.599,57.213l-4.673,2.033v-5.537l4.673-1.904V57.213z M25.226,79.762
	l-4.673,2.033v-5.538l4.673-1.904V79.762z M25.226,71.974l-4.673,2.033v-5.538l4.673-1.904V71.974z M25.226,63.666L20.553,65.7
	v-5.539l4.673-1.904V63.666z M25.226,54.839l-4.673,2.034v-5.539l4.673-1.904V54.839z M42.263,26.223l6.556-4.348v6.166
	l-6.556,4.023V26.223L42.263,26.223z M33.791,31.317l6.555-4.348v6.166l-6.555,4.023V31.317z M33.791,41.009l6.555-4.349v6.166
	l-6.555,4.024V41.009z M33.791,50.777l6.555-4.349v6.167l-6.555,4.023V50.777z M40.543,72.237l-6.555,4.023V70.42l6.555-4.349
	V72.237L40.543,72.237z M40.543,62.451l-6.555,4.023v-5.841l6.555-4.349V62.451L40.543,62.451z M42.263,35.915l6.556-4.349v6.166
	l-6.556,4.024V35.915z M42.263,45.683l6.555-4.349V47.5l-6.555,4.024V45.683z M49.016,67.142l-6.555,4.023v-5.841l6.555-4.348
	V67.142z M49.016,57.355L42.46,61.38v-5.841l6.555-4.348V57.355z"/>
<path fill="#FFFFFF" d="M71.499,62.081v27.064h19.275V68.182L71.499,62.081L71.499,62.081z M80.001,84.343l-6.329-1.656v-5.743
	l6.329,2.044V84.343z M80.001,74.932l-6.329-1.655v-5.743l6.329,2.044V74.932z M87.886,86.646l-6.327-1.655v-5.743l6.327,2.044
	V86.646z M87.886,77.235l-6.327-1.654v-5.744l6.327,2.044V77.235z"/>
</svg>
