<?xml version="1.0" encoding="utf-8"?>
<!-- Generator: Adobe Illustrator 16.0.0, SVG Export Plug-In . SVG Version: 6.00 Build 0)  -->
<!DOCTYPE svg PUBLIC "-//W3C//DTD SVG 1.1//EN" "http://www.w3.org/Graphics/SVG/1.1/DTD/svg11.dtd">
<svg version="1.1" xmlns="http://www.w3.org/2000/svg" xmlns:xlink="http://www.w3.org/1999/xlink" x="0px" y="0px" width="100px"
	 height="100px" viewBox="0 0 100 100" enable-background="new 0 0 100 100" xml:space="preserve">
<g id="图层_1">
	<path fill="#FFFFFF" d="M78.905,26.341H19.011c-3.002,0-5.445,2.443-5.445,5.445v40.44c0,3.003,2.443,5.445,5.445,5.445h59.894
		c3.002,0,5.445-2.442,5.445-5.445v-40.44C84.351,28.785,81.907,26.341,78.905,26.341z M16.289,40.252h65.339v10.393H16.289V40.252z
		 M19.011,29.063h59.894c1.502,0,2.723,1.222,2.723,2.723v5.743H16.289v-5.743C16.289,30.285,17.51,29.063,19.011,29.063z
		 M78.905,74.949H19.011c-1.501,0-2.723-1.221-2.723-2.723V53.367h65.339v18.859C81.628,73.729,80.407,74.949,78.905,74.949z
		 M45.457,63.557c0,0.752-0.608,1.359-1.361,1.359H25.258c-0.752,0-1.36-0.607-1.36-1.359c0-0.754,0.608-1.361,1.36-1.361h18.837
		C44.849,62.195,45.457,62.803,45.457,63.557z"/>
</g>
<g id="图层_2" display="none">
	<path display="inline" fill="#FFFFFF" d="M18.318,59.858c-3.255,0-5.894-2.691-5.894-6.011c0-3.324,2.64-6.013,5.894-6.013
		c3.258,0,5.898,2.689,5.898,6.013C24.216,57.169,21.576,59.858,18.318,59.858L18.318,59.858z M72.061,37.955
		c-14.539,0-26.375,11.781-26.375,26.263c0,14.483,11.835,26.254,26.375,26.254c14.545,0,26.371-11.772,26.371-26.253
		C98.432,49.736,86.605,37.955,72.061,37.955L72.061,37.955z M72.061,84.292c-11.119,0-20.165-9.004-20.165-20.074
		c0-11.069,9.046-20.071,20.165-20.071c11.122,0,20.158,9.002,20.158,20.071C92.219,75.288,83.183,84.292,72.061,84.292
		L72.061,84.292z M81.377,70.022c0.905,0,1.702,0.618,1.702,1.497c0,0.749-0.797,1.41-1.701,1.41h-8.33v5.111
		c0,0.746-0.693,1.409-1.751,1.409c-0.956,0-1.701-0.663-1.701-1.409V72.93h-8.335c-0.901,0-1.645-0.661-1.645-1.497
		c0-0.792,0.743-1.41,1.645-1.41h8.335v-4.405h-8.335c-0.901,0-1.645-0.574-1.645-1.499c0-0.747,0.743-1.367,1.645-1.367h7.063
		l-7.275-11.673c-0.478-0.658-0.158-1.496,0.795-1.891c0.799-0.308,1.808-0.043,2.232,0.572l7.324,11.716l7.273-11.761
		c0.426-0.66,1.485-0.969,2.282-0.526c0.904,0.308,1.17,1.188,0.745,1.848v-0.045l-7.274,11.761h6.952
		c0.905,0,1.701,0.619,1.701,1.454c0,0.837-0.797,1.411-1.701,1.411h-8.33v4.405H81.377L81.377,70.022z"/>
	<path display="inline" fill="#FFFFFF" d="M19.406,70.709h19.852V64.13H8.476V50.214c0-2.114,1.998-4.342,2.448-4.47
		c0.451-0.128,25.437-0.128,31.303-0.128h5.865c0,0,2.23-4.048,7.145-6.58H15.985c1.611-4.633,4.953-14.187,5.599-15.549
		c0.859-1.81,3.115-1.972,4.144-1.972c2.132,0,31.131-0.236,33.47,0c2.34,0.238,4.337,2.202,4.967,2.834
		c0.631,0.63,3.324,8.275,3.351,8.361h6.696c-0.039-0.126-3.514-10.351-4.227-11.431c-1.349-2.043-4.875-6.343-10.787-6.343h-33.47
		c-2.697,0-5.008,0.774-7.053,2.159c-2.043,1.381-2.245,2.443-2.771,3.16L8.662,39.146c-2.98,0.376-6.765,2.066-6.765,9.627v21.936
		h6.982v8.327v0.001c0,2.906,2.356,5.263,5.264,5.263s5.264-2.356,5.264-5.263v-0.001L19.406,70.709L19.406,70.709z"/>
</g>
<g id="图层_3" display="none">
	<path display="inline" fill="#FFFFFF" d="M18.085,69.521c0-4.785-0.014-9.572,0.014-14.357c0.004-0.839,0.082-1.703,0.308-2.504
		c0.252-0.896,0.966-1.39,1.93-1.353c0.958,0.039,1.64,0.583,1.849,1.48c0.189,0.813,0.202,1.681,0.204,2.524
		c0.013,8.259,0.06,16.52-0.028,24.779c-0.021,1.992,0.554,2.772,2.625,2.681c3.236-0.143,6.487-0.138,9.723-0.001
		c2.075,0.088,2.869-0.53,2.808-2.726c-0.144-5.168,0.019-10.345-0.076-15.515c-0.036-1.93,0.694-2.588,2.567-2.563
		c5.249,0.071,10.499,0.083,15.747-0.005c2.146-0.036,2.814,0.854,2.774,2.91c-0.098,5.016,0.069,10.037-0.075,15.051
		c-0.065,2.286,0.773,2.95,2.95,2.85c3.235-0.148,6.485-0.124,9.723-0.006c1.922,0.07,2.54-0.621,2.522-2.53
		c-0.081-8.261-0.036-16.521-0.032-24.779c0.001-0.771-0.016-1.55,0.076-2.313c0.124-1.036,0.742-1.711,1.799-1.806
		c1.062-0.097,1.806,0.471,2.068,1.474c0.213,0.811,0.32,1.671,0.322,2.511c0.022,9.571,0.026,19.144,0.009,28.716
		c-0.005,2.789-0.233,2.997-3.071,3.004c-5.945,0.016-11.89-0.054-17.833,0.037c-2.062,0.031-2.893-0.604-2.842-2.776
		c0.123-5.247-0.007-10.499,0.063-15.747c0.021-1.678-0.522-2.378-2.263-2.31c-2.621,0.103-5.251,0.101-7.872,0.001
		c-1.734-0.066-2.298,0.633-2.277,2.31c0.064,5.171,0.031,10.345,0.016,15.517c-0.008,2.85-0.128,2.965-3.043,2.97
		c-5.944,0.013-11.89-0.075-17.832,0.045c-2.269,0.046-2.942-0.811-2.89-2.979C18.165,79.249,18.084,74.383,18.085,69.521
		L18.085,69.521z"/>
	<path display="inline" fill="#FFFFFF" d="M9.517,53.942c-1.619,0.046-2.623-1.666-1.751-3.111c0.389-0.646,0.983-1.186,1.543-1.709
		c12.337-11.541,24.709-23.045,36.997-34.639c1.605-1.515,2.535-0.68,3.648,0.363c5.685,5.33,11.356,10.67,17.048,15.992
		c6.479,6.061,12.989,12.087,19.444,18.17c1.228,1.157,3.238,2.442,1.39,4.355c-1.731,1.793-3.067-0.068-4.254-1.172
		C72.23,41.63,60.874,31.072,49.61,20.418c-1.419-1.341-2.25-1.035-3.419,0.066c-5.897,5.553-11.813,11.087-17.74,16.607
		c-5.644,5.258-11.31,10.493-16.967,15.736C10.918,53.352,10.359,53.9,9.517,53.942L9.517,53.942z"/>
	<path display="inline" fill="#FFFFFF" d="M69.31,19.691c2.162,0,4.326,0.049,6.486-0.017c1.495-0.045,2.107,0.616,2.097,2.059
		c-0.027,3.784,0.024,7.569-0.056,11.351c-0.029,1.459-0.494,2.945-2.319,2.858c-1.719-0.081-1.9-1.518-1.898-2.915
		c0.002-2.316-0.056-4.634,0.01-6.95c0.042-1.493-0.566-2.093-2.049-2.058c-2.392,0.056-4.787,0.024-7.181,0.001
		c-0.77-0.007-1.553-0.022-2.301-0.177c-1.148-0.238-2.034-0.849-1.937-2.193c0.096-1.319,0.993-1.89,2.198-1.917
		c2.316-0.051,4.632-0.015,6.949-0.015C69.31,19.709,69.31,19.7,69.31,19.691L69.31,19.691z"/>
</g>
<g id="图层_4" display="none">
	<path display="inline" fill="#FFFFFF" d="M59.435,54.25c6.6-3.771,10.842-10.369,10.842-18.382
		c0-11.784-9.427-21.211-21.211-21.211c-11.784,0-21.211,9.427-21.211,21.211c0,8.013,4.242,14.611,10.841,18.382
		c-11.784,4.241-20.268,15.554-20.268,28.753c0,1.413,0.943,2.356,2.357,2.356s2.356-0.943,2.356-2.356
		c0-14.141,11.313-25.453,25.453-25.925h0.943C63.678,57.55,74.99,68.862,74.99,83.003c0,1.413,0.941,2.356,2.356,2.356
		c1.413,0,2.356-0.943,2.356-2.356C79.703,69.804,71.219,58.491,59.435,54.25z M32.568,35.868c0-8.956,7.542-16.498,16.497-16.498
		c8.956,0,16.497,7.542,16.497,16.498c0,8.955-7.07,16.026-16.025,16.498h-0.472h-0.472C39.639,51.894,32.568,44.823,32.568,35.868z
		"/>
</g>
<g id="图层_5" display="none">
	<path display="inline" fill="#E71F19" d="M75.317,26.237c-13.915-13.914-36.475-13.914-50.39,0
		c-13.914,13.915-13.914,36.475,0,50.39c13.916,13.913,36.475,13.913,50.39,0C89.232,62.713,89.232,40.152,75.317,26.237
		L75.317,26.237z M73.025,74.335c-12.648,12.649-33.159,12.649-45.808,0c-12.649-12.648-12.649-33.159,0-45.808
		s33.159-12.648,45.808,0C85.675,41.176,85.676,61.687,73.025,74.335z M32.745,69.034l23.63-11.032l11.031-23.63L43.777,45.404
		L32.745,69.034z M54.084,55.711l-16.717,8.703l8.702-16.718L54.084,55.711z"/>
</g>
<g id="图层_6" display="none">
	<path display="inline" fill="#FFFFFF" d="M81.598,29.047c-0.464-2.65-2.303-3.313-3.071-3.475l-0.219-0.046h-1.25
		c-0.045-0.003-0.091-0.005-0.139-0.005h-2.245c-0.046,0-0.093,0.002-0.139,0.005h-0.127v0.015
		c-0.901,0.128-1.596,0.905-1.596,1.842v0.581c0,0.938,0.694,1.713,1.596,1.842v0.019h0.212c0.019,0,0.036,0,0.055,0h2.244
		c0.019,0,0.036,0,0.055,0h0.397c0.033,0.226,0.043,0.527,0.015,0.768l-0.018,0.12v45.103c-0.087,1.298-0.527,2.271-1.31,2.898
		c-0.47,0.376-0.952,0.543-1.171,0.604H71.39l0.002-0.052c-1.393-0.055-2.234-0.577-2.726-1.698
		c-0.431-0.979-0.418-2.025-0.415-2.132l0.002-0.032V28.539c0.141-2.611-0.502-4.612-1.909-5.95
		c-1.614-1.534-3.612-1.547-4.22-1.513H24.941h-0.019c-1.639,0.014-3.04,0.615-4.049,1.739c-1.837,2.044-1.729,5.128-1.675,5.853
		v46.727c-0.018,0.433-0.024,2.066,0.743,3.778c1.178,2.625,3.606,4.2,6.837,4.433l0.077,0.004h48.429l0.159-0.021
		c0.26-0.04,1.62-0.288,3.036-1.321c1.341-0.982,2.984-2.864,3.181-6.267l0.004-0.062V30.99
		C81.699,30.644,81.743,29.883,81.598,29.047L81.598,29.047z M27.015,79.314c-1.017-0.08-2.407-0.37-3.104-1.797
		c-0.433-0.885-0.423-1.815-0.419-1.933l0.003-0.042v-47.07l-0.01-0.105c-0.048-0.488,0-2.031,0.583-2.679
		c0.137-0.153,0.348-0.309,0.881-0.315H62.2l0.068,0.014l0.144-0.023c0.116-0.001,0.645,0.012,0.992,0.359
		c0.432,0.432,0.63,1.365,0.556,2.628l-0.005,0.063v46.866c-0.015,0.438-0.021,2.216,0.785,4.033H27.015L27.015,79.314
		L27.015,79.314z M59.32,32.111c0,1.246-1.01,2.254-2.256,2.254H30.21c-1.246,0-2.255-1.008-2.255-2.254l0,0
		c0-1.247,1.01-2.256,2.255-2.256h26.854C58.311,29.855,59.32,30.865,59.32,32.111L59.32,32.111L59.32,32.111z M59.32,72.605
		L59.32,72.605"/>
	<path display="inline" fill="#FFFFFF" d="M59.245,44.644c0,1.245-1.011,2.256-2.256,2.256H30.136c-1.246,0-2.256-1.011-2.256-2.256
		l0,0c0-1.246,1.01-2.256,2.256-2.256h26.854C58.234,42.388,59.245,43.398,59.245,44.644"/>
	<path display="inline" fill="#FFFFFF" d="M59.245,56.905c0,1.246-1.011,2.254-2.256,2.254H30.136c-1.246,0-2.256-1.008-2.256-2.254
		l0,0c0-1.248,1.01-2.257,2.256-2.257h26.854C58.234,54.648,59.245,55.657,59.245,56.905"/>
	<path display="inline" fill="#FFFFFF" d="M41.414,69.227c0,1.245-1.009,2.257-2.255,2.257h-9.023c-1.246,0-2.256-1.012-2.256-2.257
		l0,0c0-1.245,1.01-2.254,2.256-2.254h9.023C40.405,66.973,41.414,67.981,41.414,69.227L41.414,69.227L41.414,69.227z"/>
</g>
</svg>
